<mxfile host="app.diagrams.net" agent="Mozilla/5.0 (Windows NT 10.0; Win64; x64) AppleWebKit/537.36 (KHTML, like Gecko) Chrome/126.0.0.0 Safari/537.36" version="24.7.6">
  <diagram id="R2lEEEUBdFMjLlhIrx00" name="Page-1">
    <mxGraphModel dx="2728" dy="749" grid="0" gridSize="10" guides="1" tooltips="1" connect="1" arrows="1" fold="1" page="1" pageScale="1" pageWidth="850" pageHeight="1100" math="0" shadow="0" extFonts="Permanent Marker^https://fonts.googleapis.com/css?family=Permanent+Marker">
      <root>
        <mxCell id="0" />
        <mxCell id="1" parent="0" />
        <mxCell id="8QP9LGqgboKZ49ZWmoJ0-61" value="" style="edgeStyle=orthogonalEdgeStyle;rounded=0;orthogonalLoop=1;jettySize=auto;html=1;endArrow=none;endFill=0;" parent="1" source="8QP9LGqgboKZ49ZWmoJ0-59" target="8QP9LGqgboKZ49ZWmoJ0-60" edge="1">
          <mxGeometry relative="1" as="geometry" />
        </mxCell>
        <mxCell id="8QP9LGqgboKZ49ZWmoJ0-63" value="" style="edgeStyle=orthogonalEdgeStyle;rounded=0;orthogonalLoop=1;jettySize=auto;html=1;endArrow=none;endFill=0;" parent="1" source="8QP9LGqgboKZ49ZWmoJ0-59" target="8QP9LGqgboKZ49ZWmoJ0-62" edge="1">
          <mxGeometry relative="1" as="geometry" />
        </mxCell>
        <mxCell id="8QP9LGqgboKZ49ZWmoJ0-73" style="rounded=0;orthogonalLoop=1;jettySize=auto;html=1;entryX=1;entryY=0.5;entryDx=0;entryDy=0;curved=0;strokeColor=default;endArrow=none;endFill=0;" parent="1" source="8QP9LGqgboKZ49ZWmoJ0-59" target="8QP9LGqgboKZ49ZWmoJ0-70" edge="1">
          <mxGeometry relative="1" as="geometry" />
        </mxCell>
        <mxCell id="8QP9LGqgboKZ49ZWmoJ0-77" style="edgeStyle=orthogonalEdgeStyle;rounded=0;orthogonalLoop=1;jettySize=auto;html=1;exitX=0.75;exitY=1;exitDx=0;exitDy=0;entryX=1;entryY=0.5;entryDx=0;entryDy=0;endArrow=none;endFill=0;" parent="1" source="8QP9LGqgboKZ49ZWmoJ0-59" target="8QP9LGqgboKZ49ZWmoJ0-76" edge="1">
          <mxGeometry relative="1" as="geometry" />
        </mxCell>
        <mxCell id="8QP9LGqgboKZ49ZWmoJ0-59" value="Employee" style="rounded=0;whiteSpace=wrap;html=1;" parent="1" vertex="1">
          <mxGeometry x="130" y="603" width="120" height="60" as="geometry" />
        </mxCell>
        <mxCell id="8QP9LGqgboKZ49ZWmoJ0-60" value="name" style="ellipse;whiteSpace=wrap;html=1;rounded=0;" parent="1" vertex="1">
          <mxGeometry x="150" y="513" width="80" height="50" as="geometry" />
        </mxCell>
        <mxCell id="8QP9LGqgboKZ49ZWmoJ0-62" value="employee_id" style="ellipse;whiteSpace=wrap;html=1;rounded=0;fontStyle=4" parent="1" vertex="1">
          <mxGeometry x="260" y="543" width="80" height="50" as="geometry" />
        </mxCell>
        <mxCell id="8QP9LGqgboKZ49ZWmoJ0-68" value="Work Shedule" style="shape=ext;margin=3;double=1;whiteSpace=wrap;html=1;align=center;" parent="1" vertex="1">
          <mxGeometry x="-10" y="513" width="100" height="40" as="geometry" />
        </mxCell>
        <mxCell id="8QP9LGqgboKZ49ZWmoJ0-72" value="" style="rounded=0;orthogonalLoop=1;jettySize=auto;html=1;edgeStyle=orthogonalEdgeStyle;endArrow=none;endFill=0;" parent="1" source="8QP9LGqgboKZ49ZWmoJ0-70" target="8QP9LGqgboKZ49ZWmoJ0-68" edge="1">
          <mxGeometry relative="1" as="geometry" />
        </mxCell>
        <mxCell id="8QP9LGqgboKZ49ZWmoJ0-70" value="has" style="shape=rhombus;perimeter=rhombusPerimeter;whiteSpace=wrap;html=1;align=center;" parent="1" vertex="1">
          <mxGeometry x="5" y="603" width="70" height="60" as="geometry" />
        </mxCell>
        <mxCell id="8QP9LGqgboKZ49ZWmoJ0-78" style="edgeStyle=orthogonalEdgeStyle;rounded=0;orthogonalLoop=1;jettySize=auto;html=1;exitX=0.5;exitY=0;exitDx=0;exitDy=0;endArrow=none;endFill=0;" parent="1" source="8QP9LGqgboKZ49ZWmoJ0-76" edge="1">
          <mxGeometry relative="1" as="geometry">
            <mxPoint x="145" y="663" as="targetPoint" />
            <Array as="points">
              <mxPoint x="145" y="663" />
            </Array>
          </mxGeometry>
        </mxCell>
        <mxCell id="8QP9LGqgboKZ49ZWmoJ0-76" value="supervise" style="shape=rhombus;perimeter=rhombusPerimeter;whiteSpace=wrap;html=1;align=center;" parent="1" vertex="1">
          <mxGeometry x="120" y="703" width="70" height="70" as="geometry" />
        </mxCell>
        <mxCell id="8QP9LGqgboKZ49ZWmoJ0-80" value="" style="edgeStyle=orthogonalEdgeStyle;rounded=0;orthogonalLoop=1;jettySize=auto;html=1;endArrow=none;endFill=0;" parent="1" source="8QP9LGqgboKZ49ZWmoJ0-83" target="8QP9LGqgboKZ49ZWmoJ0-85" edge="1">
          <mxGeometry relative="1" as="geometry" />
        </mxCell>
        <mxCell id="8QP9LGqgboKZ49ZWmoJ0-122" style="edgeStyle=orthogonalEdgeStyle;rounded=0;orthogonalLoop=1;jettySize=auto;html=1;exitX=0.5;exitY=1;exitDx=0;exitDy=0;entryX=0.5;entryY=0;entryDx=0;entryDy=0;endArrow=none;endFill=0;" parent="1" source="8QP9LGqgboKZ49ZWmoJ0-83" target="8QP9LGqgboKZ49ZWmoJ0-106" edge="1">
          <mxGeometry relative="1" as="geometry" />
        </mxCell>
        <mxCell id="8QP9LGqgboKZ49ZWmoJ0-83" value="Member" style="rounded=0;whiteSpace=wrap;html=1;" parent="1" vertex="1">
          <mxGeometry x="861" y="648" width="120" height="60" as="geometry" />
        </mxCell>
        <mxCell id="8QP9LGqgboKZ49ZWmoJ0-84" value="name" style="ellipse;whiteSpace=wrap;html=1;rounded=0;" parent="1" vertex="1">
          <mxGeometry x="1010" y="810" width="51" height="20" as="geometry" />
        </mxCell>
        <mxCell id="8QP9LGqgboKZ49ZWmoJ0-85" value="member_id" style="ellipse;whiteSpace=wrap;html=1;rounded=0;fontStyle=4" parent="1" vertex="1">
          <mxGeometry x="991" y="588" width="80" height="50" as="geometry" />
        </mxCell>
        <mxCell id="8QP9LGqgboKZ49ZWmoJ0-87" value="" style="rounded=0;orthogonalLoop=1;jettySize=auto;html=1;edgeStyle=orthogonalEdgeStyle;endArrow=ERmandOne;endFill=0;entryX=0.5;entryY=1;entryDx=0;entryDy=0;" parent="1" source="8QP9LGqgboKZ49ZWmoJ0-88" target="8QP9LGqgboKZ49ZWmoJ0-110" edge="1">
          <mxGeometry relative="1" as="geometry">
            <mxPoint x="771" y="598" as="targetPoint" />
          </mxGeometry>
        </mxCell>
        <mxCell id="8QP9LGqgboKZ49ZWmoJ0-120" style="edgeStyle=orthogonalEdgeStyle;rounded=0;orthogonalLoop=1;jettySize=auto;html=1;exitX=1;exitY=0.5;exitDx=0;exitDy=0;endArrow=ERzeroToOne;endFill=0;entryX=0;entryY=0.5;entryDx=0;entryDy=0;" parent="1" source="8QP9LGqgboKZ49ZWmoJ0-88" target="8QP9LGqgboKZ49ZWmoJ0-83" edge="1">
          <mxGeometry relative="1" as="geometry">
            <mxPoint x="830" y="730" as="targetPoint" />
          </mxGeometry>
        </mxCell>
        <mxCell id="8QP9LGqgboKZ49ZWmoJ0-88" value="has" style="shape=rhombus;perimeter=rhombusPerimeter;whiteSpace=wrap;html=1;align=center;" parent="1" vertex="1">
          <mxGeometry x="736" y="648" width="70" height="60" as="geometry" />
        </mxCell>
        <mxCell id="8QP9LGqgboKZ49ZWmoJ0-91" value="address" style="ellipse;whiteSpace=wrap;html=1;rounded=0;" parent="1" vertex="1">
          <mxGeometry x="1071" y="668" width="80" height="50" as="geometry" />
        </mxCell>
        <mxCell id="8QP9LGqgboKZ49ZWmoJ0-92" value="" style="edgeStyle=orthogonalEdgeStyle;rounded=0;orthogonalLoop=1;jettySize=auto;html=1;endArrow=none;endFill=0;exitX=1;exitY=0.75;exitDx=0;exitDy=0;" parent="1" source="8QP9LGqgboKZ49ZWmoJ0-83" target="8QP9LGqgboKZ49ZWmoJ0-91" edge="1">
          <mxGeometry relative="1" as="geometry">
            <mxPoint x="1061" y="767.74" as="sourcePoint" />
          </mxGeometry>
        </mxCell>
        <mxCell id="8QP9LGqgboKZ49ZWmoJ0-99" value="postal_code" style="ellipse;whiteSpace=wrap;html=1;rounded=0;" parent="1" vertex="1">
          <mxGeometry x="1131" y="600.5" width="80" height="25" as="geometry" />
        </mxCell>
        <mxCell id="8QP9LGqgboKZ49ZWmoJ0-100" value="" style="edgeStyle=orthogonalEdgeStyle;rounded=0;orthogonalLoop=1;jettySize=auto;html=1;endArrow=none;endFill=0;exitX=0.5;exitY=0;exitDx=0;exitDy=0;" parent="1" source="8QP9LGqgboKZ49ZWmoJ0-91" target="8QP9LGqgboKZ49ZWmoJ0-99" edge="1">
          <mxGeometry relative="1" as="geometry">
            <mxPoint x="1111" y="593" as="sourcePoint" />
          </mxGeometry>
        </mxCell>
        <mxCell id="8QP9LGqgboKZ49ZWmoJ0-102" value="city" style="ellipse;whiteSpace=wrap;html=1;rounded=0;" parent="1" vertex="1">
          <mxGeometry x="1181" y="728" width="50" height="30" as="geometry" />
        </mxCell>
        <mxCell id="8QP9LGqgboKZ49ZWmoJ0-103" value="" style="edgeStyle=orthogonalEdgeStyle;rounded=0;orthogonalLoop=1;jettySize=auto;html=1;endArrow=none;endFill=0;exitX=1;exitY=1;exitDx=0;exitDy=0;" parent="1" source="8QP9LGqgboKZ49ZWmoJ0-91" target="8QP9LGqgboKZ49ZWmoJ0-102" edge="1">
          <mxGeometry relative="1" as="geometry">
            <mxPoint x="1191" y="863" as="sourcePoint" />
            <Array as="points">
              <mxPoint x="1191" y="711" />
              <mxPoint x="1191" y="711" />
            </Array>
          </mxGeometry>
        </mxCell>
        <mxCell id="8QP9LGqgboKZ49ZWmoJ0-104" value="street" style="ellipse;whiteSpace=wrap;html=1;rounded=0;" parent="1" vertex="1">
          <mxGeometry x="1091" y="758" width="40" height="30" as="geometry" />
        </mxCell>
        <mxCell id="8QP9LGqgboKZ49ZWmoJ0-105" value="" style="edgeStyle=orthogonalEdgeStyle;rounded=0;orthogonalLoop=1;jettySize=auto;html=1;endArrow=none;endFill=0;" parent="1" source="8QP9LGqgboKZ49ZWmoJ0-91" target="8QP9LGqgboKZ49ZWmoJ0-104" edge="1">
          <mxGeometry relative="1" as="geometry">
            <mxPoint x="1041" y="863" as="sourcePoint" />
          </mxGeometry>
        </mxCell>
        <mxCell id="8QP9LGqgboKZ49ZWmoJ0-106" value="age" style="ellipse;whiteSpace=wrap;html=1;align=center;dashed=1;" parent="1" vertex="1">
          <mxGeometry x="886" y="753" width="44" height="27" as="geometry" />
        </mxCell>
        <mxCell id="8QP9LGqgboKZ49ZWmoJ0-107" value="date of birth" style="ellipse;whiteSpace=wrap;html=1;align=center;" parent="1" vertex="1">
          <mxGeometry x="820" y="800" width="70" height="40" as="geometry" />
        </mxCell>
        <mxCell id="8QP9LGqgboKZ49ZWmoJ0-109" style="edgeStyle=orthogonalEdgeStyle;rounded=0;orthogonalLoop=1;jettySize=auto;html=1;entryX=0.113;entryY=0.974;entryDx=0;entryDy=0;entryPerimeter=0;endArrow=none;endFill=0;" parent="1" source="8QP9LGqgboKZ49ZWmoJ0-107" target="8QP9LGqgboKZ49ZWmoJ0-83" edge="1">
          <mxGeometry relative="1" as="geometry" />
        </mxCell>
        <mxCell id="8QP9LGqgboKZ49ZWmoJ0-110" value="Member Card" style="whiteSpace=wrap;html=1;align=center;" parent="1" vertex="1">
          <mxGeometry x="721" y="558" width="100" height="40" as="geometry" />
        </mxCell>
        <mxCell id="8QP9LGqgboKZ49ZWmoJ0-112" value="" style="edgeStyle=orthogonalEdgeStyle;rounded=0;orthogonalLoop=1;jettySize=auto;html=1;endArrow=none;endFill=0;exitX=0.16;exitY=-0.005;exitDx=0;exitDy=0;exitPerimeter=0;entryX=0.42;entryY=0.917;entryDx=0;entryDy=0;entryPerimeter=0;" parent="1" source="8QP9LGqgboKZ49ZWmoJ0-110" target="8QP9LGqgboKZ49ZWmoJ0-177" edge="1">
          <mxGeometry relative="1" as="geometry">
            <mxPoint x="736" y="537.5" as="sourcePoint" />
            <mxPoint x="740" y="535" as="targetPoint" />
          </mxGeometry>
        </mxCell>
        <mxCell id="8QP9LGqgboKZ49ZWmoJ0-115" value="issued_date" style="ellipse;whiteSpace=wrap;html=1;rounded=0;" parent="1" vertex="1">
          <mxGeometry x="600" y="688" width="80" height="25" as="geometry" />
        </mxCell>
        <mxCell id="8QP9LGqgboKZ49ZWmoJ0-116" value="" style="edgeStyle=orthogonalEdgeStyle;rounded=0;orthogonalLoop=1;jettySize=auto;html=1;endArrow=none;endFill=0;exitX=0;exitY=0.5;exitDx=0;exitDy=0;" parent="1" source="8QP9LGqgboKZ49ZWmoJ0-88" target="8QP9LGqgboKZ49ZWmoJ0-115" edge="1">
          <mxGeometry relative="1" as="geometry">
            <mxPoint x="581" y="776" as="sourcePoint" />
          </mxGeometry>
        </mxCell>
        <mxCell id="8QP9LGqgboKZ49ZWmoJ0-117" value="expiry_date" style="ellipse;whiteSpace=wrap;html=1;rounded=0;" parent="1" vertex="1">
          <mxGeometry x="710" y="748" width="80" height="25" as="geometry" />
        </mxCell>
        <mxCell id="8QP9LGqgboKZ49ZWmoJ0-118" value="" style="edgeStyle=orthogonalEdgeStyle;rounded=0;orthogonalLoop=1;jettySize=auto;html=1;endArrow=none;endFill=0;exitX=0.5;exitY=1;exitDx=0;exitDy=0;" parent="1" source="8QP9LGqgboKZ49ZWmoJ0-88" target="8QP9LGqgboKZ49ZWmoJ0-117" edge="1">
          <mxGeometry relative="1" as="geometry">
            <mxPoint x="691" y="836" as="sourcePoint" />
          </mxGeometry>
        </mxCell>
        <mxCell id="8QP9LGqgboKZ49ZWmoJ0-123" style="edgeStyle=orthogonalEdgeStyle;rounded=0;orthogonalLoop=1;jettySize=auto;html=1;exitX=0.75;exitY=1;exitDx=0;exitDy=0;entryX=0.611;entryY=0.006;entryDx=0;entryDy=0;entryPerimeter=0;endArrow=none;endFill=0;" parent="1" source="8QP9LGqgboKZ49ZWmoJ0-83" target="8QP9LGqgboKZ49ZWmoJ0-84" edge="1">
          <mxGeometry relative="1" as="geometry" />
        </mxCell>
        <mxCell id="8QP9LGqgboKZ49ZWmoJ0-170" style="edgeStyle=orthogonalEdgeStyle;rounded=0;orthogonalLoop=1;jettySize=auto;html=1;exitX=0.5;exitY=0;exitDx=0;exitDy=0;entryX=1;entryY=1;entryDx=0;entryDy=0;endArrow=ERmandOne;endFill=0;" parent="1" source="8QP9LGqgboKZ49ZWmoJ0-125" target="8QP9LGqgboKZ49ZWmoJ0-59" edge="1">
          <mxGeometry relative="1" as="geometry">
            <mxPoint x="299" y="686" as="targetPoint" />
          </mxGeometry>
        </mxCell>
        <mxCell id="8QP9LGqgboKZ49ZWmoJ0-172" style="edgeStyle=orthogonalEdgeStyle;rounded=0;orthogonalLoop=1;jettySize=auto;html=1;exitX=1;exitY=0.5;exitDx=0;exitDy=0;entryX=0.643;entryY=0.961;entryDx=0;entryDy=0;entryPerimeter=0;endArrow=ERzeroToMany;endFill=0;" parent="1" source="8QP9LGqgboKZ49ZWmoJ0-125" target="8QP9LGqgboKZ49ZWmoJ0-83" edge="1">
          <mxGeometry relative="1" as="geometry">
            <mxPoint x="814" y="717" as="targetPoint" />
          </mxGeometry>
        </mxCell>
        <mxCell id="8QP9LGqgboKZ49ZWmoJ0-173" style="edgeStyle=orthogonalEdgeStyle;rounded=0;orthogonalLoop=1;jettySize=auto;html=1;exitX=0.5;exitY=1;exitDx=0;exitDy=0;entryX=1.003;entryY=0.827;entryDx=0;entryDy=0;endArrow=ERzeroToMany;endFill=0;entryPerimeter=0;" parent="1" source="8QP9LGqgboKZ49ZWmoJ0-125" target="8QP9LGqgboKZ49ZWmoJ0-130" edge="1">
          <mxGeometry relative="1" as="geometry" />
        </mxCell>
        <mxCell id="8QP9LGqgboKZ49ZWmoJ0-125" value="lend" style="shape=rhombus;perimeter=rhombusPerimeter;whiteSpace=wrap;html=1;align=center;" parent="1" vertex="1">
          <mxGeometry x="480" y="835" width="120" height="60" as="geometry" />
        </mxCell>
        <mxCell id="8QP9LGqgboKZ49ZWmoJ0-126" value="" style="edgeStyle=orthogonalEdgeStyle;rounded=0;orthogonalLoop=1;jettySize=auto;html=1;endArrow=none;endFill=0;" parent="1" source="8QP9LGqgboKZ49ZWmoJ0-130" target="8QP9LGqgboKZ49ZWmoJ0-131" edge="1">
          <mxGeometry relative="1" as="geometry" />
        </mxCell>
        <mxCell id="8QP9LGqgboKZ49ZWmoJ0-127" value="" style="edgeStyle=orthogonalEdgeStyle;rounded=0;orthogonalLoop=1;jettySize=auto;html=1;endArrow=none;endFill=0;" parent="1" source="8QP9LGqgboKZ49ZWmoJ0-130" target="8QP9LGqgboKZ49ZWmoJ0-132" edge="1">
          <mxGeometry relative="1" as="geometry" />
        </mxCell>
        <mxCell id="8QP9LGqgboKZ49ZWmoJ0-141" style="edgeStyle=orthogonalEdgeStyle;rounded=0;orthogonalLoop=1;jettySize=auto;html=1;exitX=0.334;exitY=0.995;exitDx=0;exitDy=0;endArrow=none;endFill=0;exitPerimeter=0;" parent="1" source="8QP9LGqgboKZ49ZWmoJ0-130" target="8QP9LGqgboKZ49ZWmoJ0-140" edge="1">
          <mxGeometry relative="1" as="geometry">
            <Array as="points" />
          </mxGeometry>
        </mxCell>
        <mxCell id="8QP9LGqgboKZ49ZWmoJ0-130" value="Book" style="rounded=0;whiteSpace=wrap;html=1;" parent="1" vertex="1">
          <mxGeometry x="140" y="930" width="120" height="60" as="geometry" />
        </mxCell>
        <mxCell id="8QP9LGqgboKZ49ZWmoJ0-131" value="ISBN" style="ellipse;whiteSpace=wrap;html=1;rounded=0;fontStyle=4" parent="1" vertex="1">
          <mxGeometry x="160" y="840" width="80" height="50" as="geometry" />
        </mxCell>
        <mxCell id="8QP9LGqgboKZ49ZWmoJ0-132" value="title" style="ellipse;whiteSpace=wrap;html=1;rounded=0;" parent="1" vertex="1">
          <mxGeometry x="270" y="870" width="80" height="50" as="geometry" />
        </mxCell>
        <mxCell id="8QP9LGqgboKZ49ZWmoJ0-138" value="description" style="ellipse;whiteSpace=wrap;html=1;rounded=0;" parent="1" vertex="1">
          <mxGeometry x="-56" y="950" width="80" height="50" as="geometry" />
        </mxCell>
        <mxCell id="8QP9LGqgboKZ49ZWmoJ0-139" value="" style="edgeStyle=orthogonalEdgeStyle;rounded=0;orthogonalLoop=1;jettySize=auto;html=1;endArrow=none;endFill=0;exitX=0;exitY=0.5;exitDx=0;exitDy=0;" parent="1" source="8QP9LGqgboKZ49ZWmoJ0-130" target="8QP9LGqgboKZ49ZWmoJ0-138" edge="1">
          <mxGeometry relative="1" as="geometry">
            <mxPoint x="320" y="1040" as="sourcePoint" />
          </mxGeometry>
        </mxCell>
        <mxCell id="8QP9LGqgboKZ49ZWmoJ0-140" value="reviews" style="ellipse;shape=doubleEllipse;margin=3;whiteSpace=wrap;html=1;align=center;" parent="1" vertex="1">
          <mxGeometry x="130" y="1070" width="100" height="40" as="geometry" />
        </mxCell>
        <mxCell id="8QP9LGqgboKZ49ZWmoJ0-142" value="Weak Entity" style="shape=ext;margin=3;double=1;whiteSpace=wrap;html=1;align=center;" parent="1" vertex="1">
          <mxGeometry x="-750" y="80" width="100" height="40" as="geometry" />
        </mxCell>
        <mxCell id="8QP9LGqgboKZ49ZWmoJ0-143" value="Strong Entity" style="whiteSpace=wrap;html=1;align=center;" parent="1" vertex="1">
          <mxGeometry x="-750" y="20" width="100" height="40" as="geometry" />
        </mxCell>
        <mxCell id="8QP9LGqgboKZ49ZWmoJ0-144" value="Primary Key" style="ellipse;whiteSpace=wrap;html=1;align=center;fontStyle=4;" parent="1" vertex="1">
          <mxGeometry x="-600" y="20" width="100" height="40" as="geometry" />
        </mxCell>
        <mxCell id="8QP9LGqgboKZ49ZWmoJ0-145" value="Derived Attribute" style="ellipse;whiteSpace=wrap;html=1;align=center;dashed=1;" parent="1" vertex="1">
          <mxGeometry x="-480" y="20" width="100" height="40" as="geometry" />
        </mxCell>
        <mxCell id="8QP9LGqgboKZ49ZWmoJ0-146" value="multi value Attribute" style="ellipse;shape=doubleEllipse;margin=3;whiteSpace=wrap;html=1;align=center;" parent="1" vertex="1">
          <mxGeometry x="-460" y="90" width="100" height="40" as="geometry" />
        </mxCell>
        <mxCell id="8QP9LGqgboKZ49ZWmoJ0-151" value="" style="edgeStyle=orthogonalEdgeStyle;rounded=0;orthogonalLoop=1;jettySize=auto;html=1;" parent="1" source="8QP9LGqgboKZ49ZWmoJ0-147" target="8QP9LGqgboKZ49ZWmoJ0-150" edge="1">
          <mxGeometry relative="1" as="geometry" />
        </mxCell>
        <mxCell id="8QP9LGqgboKZ49ZWmoJ0-153" value="" style="edgeStyle=orthogonalEdgeStyle;rounded=0;orthogonalLoop=1;jettySize=auto;html=1;" parent="1" source="8QP9LGqgboKZ49ZWmoJ0-147" target="8QP9LGqgboKZ49ZWmoJ0-152" edge="1">
          <mxGeometry relative="1" as="geometry" />
        </mxCell>
        <mxCell id="8QP9LGqgboKZ49ZWmoJ0-155" value="" style="edgeStyle=orthogonalEdgeStyle;rounded=0;orthogonalLoop=1;jettySize=auto;html=1;" parent="1" source="8QP9LGqgboKZ49ZWmoJ0-147" target="8QP9LGqgboKZ49ZWmoJ0-154" edge="1">
          <mxGeometry relative="1" as="geometry" />
        </mxCell>
        <mxCell id="8QP9LGqgboKZ49ZWmoJ0-147" value="composite Attribute" style="ellipse;whiteSpace=wrap;html=1;align=center;" parent="1" vertex="1">
          <mxGeometry x="-680" y="160" width="80" height="40" as="geometry" />
        </mxCell>
        <mxCell id="8QP9LGqgboKZ49ZWmoJ0-150" value="Attribute 1" style="ellipse;whiteSpace=wrap;html=1;align=center;" parent="1" vertex="1">
          <mxGeometry x="-560" y="160" width="80" height="40" as="geometry" />
        </mxCell>
        <mxCell id="8QP9LGqgboKZ49ZWmoJ0-152" value="Attribute 2" style="ellipse;whiteSpace=wrap;html=1;align=center;" parent="1" vertex="1">
          <mxGeometry x="-680" y="230" width="80" height="40" as="geometry" />
        </mxCell>
        <mxCell id="8QP9LGqgboKZ49ZWmoJ0-154" value="Attribute 3" style="ellipse;whiteSpace=wrap;html=1;align=center;" parent="1" vertex="1">
          <mxGeometry x="-800" y="170" width="80" height="40" as="geometry" />
        </mxCell>
        <mxCell id="8QP9LGqgboKZ49ZWmoJ0-156" value="&lt;div style=&quot;text-align: left;&quot;&gt;&lt;span style=&quot;background-color: initial;&quot;&gt;Unary : relationship with itself&lt;/span&gt;&lt;/div&gt;&lt;div style=&quot;text-align: left;&quot;&gt;&lt;span style=&quot;background-color: initial;&quot;&gt;Binary: relationship between 2 entities&lt;/span&gt;&lt;/div&gt;&lt;div style=&quot;text-align: left;&quot;&gt;&lt;span style=&quot;background-color: initial;&quot;&gt;Ternary : relationship between more than 2 entities&lt;/span&gt;&lt;/div&gt;" style="text;html=1;align=center;verticalAlign=middle;whiteSpace=wrap;rounded=0;" parent="1" vertex="1">
          <mxGeometry x="-835" y="347" width="301" height="30" as="geometry" />
        </mxCell>
        <mxCell id="8QP9LGqgboKZ49ZWmoJ0-157" value="writes" style="shape=rhombus;perimeter=rhombusPerimeter;whiteSpace=wrap;html=1;align=center;" parent="1" vertex="1">
          <mxGeometry x="510" y="1110" width="120" height="60" as="geometry" />
        </mxCell>
        <mxCell id="8QP9LGqgboKZ49ZWmoJ0-159" value="" style="edgeStyle=orthogonalEdgeStyle;rounded=0;orthogonalLoop=1;jettySize=auto;html=1;endArrow=none;endFill=0;" parent="1" source="8QP9LGqgboKZ49ZWmoJ0-161" target="8QP9LGqgboKZ49ZWmoJ0-163" edge="1">
          <mxGeometry relative="1" as="geometry" />
        </mxCell>
        <mxCell id="8QP9LGqgboKZ49ZWmoJ0-167" style="edgeStyle=orthogonalEdgeStyle;rounded=0;orthogonalLoop=1;jettySize=auto;html=1;endArrow=ERmandOne;endFill=0;exitX=0.5;exitY=1;exitDx=0;exitDy=0;entryX=0.5;entryY=0;entryDx=0;entryDy=0;" parent="1" source="8QP9LGqgboKZ49ZWmoJ0-157" target="8QP9LGqgboKZ49ZWmoJ0-161" edge="1">
          <mxGeometry relative="1" as="geometry">
            <mxPoint x="600" y="1210" as="sourcePoint" />
            <mxPoint x="500" y="1210" as="targetPoint" />
          </mxGeometry>
        </mxCell>
        <mxCell id="8QP9LGqgboKZ49ZWmoJ0-161" value="Author" style="rounded=0;whiteSpace=wrap;html=1;" parent="1" vertex="1">
          <mxGeometry x="510" y="1350" width="120" height="60" as="geometry" />
        </mxCell>
        <mxCell id="8QP9LGqgboKZ49ZWmoJ0-163" value="name" style="ellipse;whiteSpace=wrap;html=1;rounded=0;" parent="1" vertex="1">
          <mxGeometry x="640" y="1290" width="80" height="50" as="geometry" />
        </mxCell>
        <mxCell id="8QP9LGqgboKZ49ZWmoJ0-165" value="" style="edgeStyle=orthogonalEdgeStyle;rounded=0;orthogonalLoop=1;jettySize=auto;html=1;endArrow=none;endFill=0;exitX=1.006;exitY=0.889;exitDx=0;exitDy=0;exitPerimeter=0;entryX=0;entryY=0.5;entryDx=0;entryDy=0;" parent="1" source="8QP9LGqgboKZ49ZWmoJ0-161" target="8QP9LGqgboKZ49ZWmoJ0-178" edge="1">
          <mxGeometry relative="1" as="geometry">
            <mxPoint x="690" y="1460" as="sourcePoint" />
            <mxPoint x="700" y="1395" as="targetPoint" />
          </mxGeometry>
        </mxCell>
        <mxCell id="8QP9LGqgboKZ49ZWmoJ0-168" style="edgeStyle=orthogonalEdgeStyle;rounded=0;orthogonalLoop=1;jettySize=auto;html=1;exitX=0.5;exitY=0;exitDx=0;exitDy=0;entryX=0.842;entryY=0.983;entryDx=0;entryDy=0;entryPerimeter=0;endArrow=ERzeroToMany;endFill=0;" parent="1" source="8QP9LGqgboKZ49ZWmoJ0-157" target="8QP9LGqgboKZ49ZWmoJ0-130" edge="1">
          <mxGeometry relative="1" as="geometry" />
        </mxCell>
        <mxCell id="8QP9LGqgboKZ49ZWmoJ0-174" value="date" style="ellipse;whiteSpace=wrap;html=1;rounded=0;" parent="1" vertex="1">
          <mxGeometry x="585" y="935" width="80" height="50" as="geometry" />
        </mxCell>
        <mxCell id="8QP9LGqgboKZ49ZWmoJ0-175" value="" style="edgeStyle=orthogonalEdgeStyle;rounded=0;orthogonalLoop=1;jettySize=auto;html=1;endArrow=none;endFill=0;exitX=1;exitY=1;exitDx=0;exitDy=0;" parent="1" source="8QP9LGqgboKZ49ZWmoJ0-125" target="8QP9LGqgboKZ49ZWmoJ0-174" edge="1">
          <mxGeometry relative="1" as="geometry">
            <mxPoint x="778" y="921" as="sourcePoint" />
          </mxGeometry>
        </mxCell>
        <mxCell id="8QP9LGqgboKZ49ZWmoJ0-177" value="card_number" style="ellipse;whiteSpace=wrap;html=1;align=center;fontStyle=4;" parent="1" vertex="1">
          <mxGeometry x="700" y="473" width="100" height="40" as="geometry" />
        </mxCell>
        <mxCell id="8QP9LGqgboKZ49ZWmoJ0-178" value="author_id" style="ellipse;whiteSpace=wrap;html=1;align=center;fontStyle=4;" parent="1" vertex="1">
          <mxGeometry x="736" y="1381" width="100" height="40" as="geometry" />
        </mxCell>
        <mxCell id="8QP9LGqgboKZ49ZWmoJ0-180" value="" style="edgeStyle=orthogonalEdgeStyle;rounded=0;orthogonalLoop=1;jettySize=auto;html=1;endArrow=none;endFill=0;" parent="1" source="8QP9LGqgboKZ49ZWmoJ0-184" target="8QP9LGqgboKZ49ZWmoJ0-185" edge="1">
          <mxGeometry relative="1" as="geometry" />
        </mxCell>
        <mxCell id="8QP9LGqgboKZ49ZWmoJ0-181" value="" style="edgeStyle=orthogonalEdgeStyle;rounded=0;orthogonalLoop=1;jettySize=auto;html=1;endArrow=none;endFill=0;" parent="1" source="8QP9LGqgboKZ49ZWmoJ0-184" target="8QP9LGqgboKZ49ZWmoJ0-186" edge="1">
          <mxGeometry relative="1" as="geometry" />
        </mxCell>
        <mxCell id="8QP9LGqgboKZ49ZWmoJ0-182" style="rounded=0;orthogonalLoop=1;jettySize=auto;html=1;entryX=1;entryY=0.5;entryDx=0;entryDy=0;curved=0;strokeColor=default;endArrow=none;endFill=0;" parent="1" source="8QP9LGqgboKZ49ZWmoJ0-184" target="8QP9LGqgboKZ49ZWmoJ0-189" edge="1">
          <mxGeometry relative="1" as="geometry" />
        </mxCell>
        <mxCell id="8QP9LGqgboKZ49ZWmoJ0-183" style="edgeStyle=orthogonalEdgeStyle;rounded=0;orthogonalLoop=1;jettySize=auto;html=1;exitX=0.75;exitY=1;exitDx=0;exitDy=0;entryX=1;entryY=0.5;entryDx=0;entryDy=0;endArrow=none;endFill=0;" parent="1" source="8QP9LGqgboKZ49ZWmoJ0-184" target="8QP9LGqgboKZ49ZWmoJ0-191" edge="1">
          <mxGeometry relative="1" as="geometry" />
        </mxCell>
        <mxCell id="8QP9LGqgboKZ49ZWmoJ0-184" value="Employee" style="rounded=0;whiteSpace=wrap;html=1;" parent="1" vertex="1">
          <mxGeometry x="33" y="1900" width="120" height="60" as="geometry" />
        </mxCell>
        <mxCell id="8QP9LGqgboKZ49ZWmoJ0-185" value="name" style="ellipse;whiteSpace=wrap;html=1;rounded=0;" parent="1" vertex="1">
          <mxGeometry x="53" y="1810" width="80" height="50" as="geometry" />
        </mxCell>
        <mxCell id="8QP9LGqgboKZ49ZWmoJ0-186" value="employee_id" style="ellipse;whiteSpace=wrap;html=1;rounded=0;fontStyle=4" parent="1" vertex="1">
          <mxGeometry x="163" y="1840" width="80" height="50" as="geometry" />
        </mxCell>
        <mxCell id="8QP9LGqgboKZ49ZWmoJ0-187" value="Work Shedule" style="shape=ext;margin=3;double=1;whiteSpace=wrap;html=1;align=center;" parent="1" vertex="1">
          <mxGeometry x="-257" y="1910" width="100" height="40" as="geometry" />
        </mxCell>
        <mxCell id="8QP9LGqgboKZ49ZWmoJ0-188" value="" style="rounded=0;orthogonalLoop=1;jettySize=auto;html=1;edgeStyle=orthogonalEdgeStyle;endArrow=none;endFill=0;" parent="1" source="8QP9LGqgboKZ49ZWmoJ0-189" target="8QP9LGqgboKZ49ZWmoJ0-187" edge="1">
          <mxGeometry relative="1" as="geometry" />
        </mxCell>
        <mxCell id="8QP9LGqgboKZ49ZWmoJ0-189" value="has" style="shape=rhombus;perimeter=rhombusPerimeter;whiteSpace=wrap;html=1;align=center;" parent="1" vertex="1">
          <mxGeometry x="-92" y="1900" width="70" height="60" as="geometry" />
        </mxCell>
        <mxCell id="8QP9LGqgboKZ49ZWmoJ0-190" style="edgeStyle=orthogonalEdgeStyle;rounded=0;orthogonalLoop=1;jettySize=auto;html=1;exitX=0.5;exitY=0;exitDx=0;exitDy=0;endArrow=none;endFill=0;" parent="1" source="8QP9LGqgboKZ49ZWmoJ0-191" edge="1">
          <mxGeometry relative="1" as="geometry">
            <mxPoint x="48" y="1960" as="targetPoint" />
            <Array as="points">
              <mxPoint x="48" y="1960" />
            </Array>
          </mxGeometry>
        </mxCell>
        <mxCell id="8QP9LGqgboKZ49ZWmoJ0-191" value="supervise" style="shape=rhombus;perimeter=rhombusPerimeter;whiteSpace=wrap;html=1;align=center;" parent="1" vertex="1">
          <mxGeometry x="23" y="2000" width="70" height="70" as="geometry" />
        </mxCell>
        <mxCell id="8QP9LGqgboKZ49ZWmoJ0-192" value="" style="edgeStyle=orthogonalEdgeStyle;rounded=0;orthogonalLoop=1;jettySize=auto;html=1;endArrow=none;endFill=0;" parent="1" source="8QP9LGqgboKZ49ZWmoJ0-194" target="8QP9LGqgboKZ49ZWmoJ0-196" edge="1">
          <mxGeometry relative="1" as="geometry" />
        </mxCell>
        <mxCell id="8QP9LGqgboKZ49ZWmoJ0-193" style="rounded=0;orthogonalLoop=1;jettySize=auto;html=1;exitX=0.5;exitY=1;exitDx=0;exitDy=0;entryX=0.5;entryY=0;entryDx=0;entryDy=0;endArrow=none;endFill=0;" parent="1" source="8QP9LGqgboKZ49ZWmoJ0-194" target="8QP9LGqgboKZ49ZWmoJ0-208" edge="1">
          <mxGeometry relative="1" as="geometry" />
        </mxCell>
        <mxCell id="8QP9LGqgboKZ49ZWmoJ0-194" value="Member" style="rounded=0;whiteSpace=wrap;html=1;" parent="1" vertex="1">
          <mxGeometry x="668" y="2032" width="120" height="60" as="geometry" />
        </mxCell>
        <mxCell id="8QP9LGqgboKZ49ZWmoJ0-195" value="name" style="ellipse;whiteSpace=wrap;html=1;rounded=0;" parent="1" vertex="1">
          <mxGeometry x="817" y="2194" width="51" height="20" as="geometry" />
        </mxCell>
        <mxCell id="8QP9LGqgboKZ49ZWmoJ0-196" value="member_id" style="ellipse;whiteSpace=wrap;html=1;rounded=0;fontStyle=4" parent="1" vertex="1">
          <mxGeometry x="798" y="1972" width="80" height="50" as="geometry" />
        </mxCell>
        <mxCell id="8QP9LGqgboKZ49ZWmoJ0-197" value="" style="rounded=0;orthogonalLoop=1;jettySize=auto;html=1;edgeStyle=orthogonalEdgeStyle;endArrow=ERmandOne;endFill=0;entryX=0.5;entryY=1;entryDx=0;entryDy=0;" parent="1" source="8QP9LGqgboKZ49ZWmoJ0-199" target="8QP9LGqgboKZ49ZWmoJ0-211" edge="1">
          <mxGeometry relative="1" as="geometry">
            <mxPoint x="730" y="1824" as="targetPoint" />
          </mxGeometry>
        </mxCell>
        <mxCell id="8QP9LGqgboKZ49ZWmoJ0-198" style="rounded=0;orthogonalLoop=1;jettySize=auto;html=1;exitX=0.5;exitY=1;exitDx=0;exitDy=0;endArrow=ERzeroToOne;endFill=0;entryX=0.535;entryY=0.03;entryDx=0;entryDy=0;entryPerimeter=0;" parent="1" source="8QP9LGqgboKZ49ZWmoJ0-199" target="8QP9LGqgboKZ49ZWmoJ0-194" edge="1">
          <mxGeometry relative="1" as="geometry">
            <mxPoint x="637" y="2114" as="targetPoint" />
          </mxGeometry>
        </mxCell>
        <mxCell id="8QP9LGqgboKZ49ZWmoJ0-199" value="has" style="shape=rhombus;perimeter=rhombusPerimeter;whiteSpace=wrap;html=1;align=center;" parent="1" vertex="1">
          <mxGeometry x="695" y="1874" width="70" height="60" as="geometry" />
        </mxCell>
        <mxCell id="8QP9LGqgboKZ49ZWmoJ0-200" value="address" style="ellipse;whiteSpace=wrap;html=1;rounded=0;" parent="1" vertex="1">
          <mxGeometry x="878" y="2052" width="80" height="50" as="geometry" />
        </mxCell>
        <mxCell id="8QP9LGqgboKZ49ZWmoJ0-201" value="" style="edgeStyle=orthogonalEdgeStyle;rounded=0;orthogonalLoop=1;jettySize=auto;html=1;endArrow=none;endFill=0;exitX=1;exitY=0.75;exitDx=0;exitDy=0;" parent="1" source="8QP9LGqgboKZ49ZWmoJ0-194" target="8QP9LGqgboKZ49ZWmoJ0-200" edge="1">
          <mxGeometry relative="1" as="geometry">
            <mxPoint x="868" y="2151.74" as="sourcePoint" />
          </mxGeometry>
        </mxCell>
        <mxCell id="8QP9LGqgboKZ49ZWmoJ0-202" value="postal_code" style="ellipse;whiteSpace=wrap;html=1;rounded=0;" parent="1" vertex="1">
          <mxGeometry x="938" y="1984.5" width="80" height="25" as="geometry" />
        </mxCell>
        <mxCell id="8QP9LGqgboKZ49ZWmoJ0-203" value="" style="edgeStyle=orthogonalEdgeStyle;rounded=0;orthogonalLoop=1;jettySize=auto;html=1;endArrow=none;endFill=0;exitX=0.5;exitY=0;exitDx=0;exitDy=0;" parent="1" source="8QP9LGqgboKZ49ZWmoJ0-200" target="8QP9LGqgboKZ49ZWmoJ0-202" edge="1">
          <mxGeometry relative="1" as="geometry">
            <mxPoint x="918" y="1977" as="sourcePoint" />
          </mxGeometry>
        </mxCell>
        <mxCell id="8QP9LGqgboKZ49ZWmoJ0-204" value="city" style="ellipse;whiteSpace=wrap;html=1;rounded=0;" parent="1" vertex="1">
          <mxGeometry x="988" y="2112" width="50" height="30" as="geometry" />
        </mxCell>
        <mxCell id="8QP9LGqgboKZ49ZWmoJ0-205" value="" style="edgeStyle=orthogonalEdgeStyle;rounded=0;orthogonalLoop=1;jettySize=auto;html=1;endArrow=none;endFill=0;exitX=1;exitY=1;exitDx=0;exitDy=0;" parent="1" source="8QP9LGqgboKZ49ZWmoJ0-200" target="8QP9LGqgboKZ49ZWmoJ0-204" edge="1">
          <mxGeometry relative="1" as="geometry">
            <mxPoint x="998" y="2247" as="sourcePoint" />
            <Array as="points">
              <mxPoint x="998" y="2095" />
              <mxPoint x="998" y="2095" />
            </Array>
          </mxGeometry>
        </mxCell>
        <mxCell id="8QP9LGqgboKZ49ZWmoJ0-206" value="street" style="ellipse;whiteSpace=wrap;html=1;rounded=0;" parent="1" vertex="1">
          <mxGeometry x="898" y="2142" width="40" height="30" as="geometry" />
        </mxCell>
        <mxCell id="8QP9LGqgboKZ49ZWmoJ0-207" value="" style="edgeStyle=orthogonalEdgeStyle;rounded=0;orthogonalLoop=1;jettySize=auto;html=1;endArrow=none;endFill=0;" parent="1" source="8QP9LGqgboKZ49ZWmoJ0-200" target="8QP9LGqgboKZ49ZWmoJ0-206" edge="1">
          <mxGeometry relative="1" as="geometry">
            <mxPoint x="848" y="2247" as="sourcePoint" />
          </mxGeometry>
        </mxCell>
        <mxCell id="8QP9LGqgboKZ49ZWmoJ0-208" value="age" style="ellipse;whiteSpace=wrap;html=1;align=center;dashed=1;" parent="1" vertex="1">
          <mxGeometry x="706" y="2187" width="44" height="27" as="geometry" />
        </mxCell>
        <mxCell id="8QP9LGqgboKZ49ZWmoJ0-209" value="date of birth" style="ellipse;whiteSpace=wrap;html=1;align=center;" parent="1" vertex="1">
          <mxGeometry x="647" y="2124.5" width="70" height="40" as="geometry" />
        </mxCell>
        <mxCell id="8QP9LGqgboKZ49ZWmoJ0-210" style="rounded=0;orthogonalLoop=1;jettySize=auto;html=1;entryX=0.113;entryY=0.974;entryDx=0;entryDy=0;entryPerimeter=0;endArrow=none;endFill=0;" parent="1" source="8QP9LGqgboKZ49ZWmoJ0-209" target="8QP9LGqgboKZ49ZWmoJ0-194" edge="1">
          <mxGeometry relative="1" as="geometry" />
        </mxCell>
        <mxCell id="8QP9LGqgboKZ49ZWmoJ0-211" value="Member Card" style="whiteSpace=wrap;html=1;align=center;" parent="1" vertex="1">
          <mxGeometry x="680" y="1784" width="100" height="40" as="geometry" />
        </mxCell>
        <mxCell id="8QP9LGqgboKZ49ZWmoJ0-212" value="" style="rounded=0;orthogonalLoop=1;jettySize=auto;html=1;endArrow=none;endFill=0;entryX=0.42;entryY=0.917;entryDx=0;entryDy=0;entryPerimeter=0;exitX=0.5;exitY=0;exitDx=0;exitDy=0;" parent="1" source="8QP9LGqgboKZ49ZWmoJ0-211" target="8QP9LGqgboKZ49ZWmoJ0-240" edge="1">
          <mxGeometry relative="1" as="geometry">
            <mxPoint x="730" y="1784" as="sourcePoint" />
            <mxPoint x="699" y="1761" as="targetPoint" />
          </mxGeometry>
        </mxCell>
        <mxCell id="8QP9LGqgboKZ49ZWmoJ0-213" value="issued_date" style="ellipse;whiteSpace=wrap;html=1;rounded=0;" parent="1" vertex="1">
          <mxGeometry x="563" y="1891.5" width="80" height="25" as="geometry" />
        </mxCell>
        <mxCell id="8QP9LGqgboKZ49ZWmoJ0-214" value="" style="rounded=0;orthogonalLoop=1;jettySize=auto;html=1;endArrow=none;endFill=0;exitX=0;exitY=0.5;exitDx=0;exitDy=0;" parent="1" source="8QP9LGqgboKZ49ZWmoJ0-199" target="8QP9LGqgboKZ49ZWmoJ0-213" edge="1">
          <mxGeometry relative="1" as="geometry">
            <mxPoint x="540" y="2002" as="sourcePoint" />
          </mxGeometry>
        </mxCell>
        <mxCell id="8QP9LGqgboKZ49ZWmoJ0-215" value="expiry_date" style="ellipse;whiteSpace=wrap;html=1;rounded=0;" parent="1" vertex="1">
          <mxGeometry x="829" y="1891.5" width="80" height="25" as="geometry" />
        </mxCell>
        <mxCell id="8QP9LGqgboKZ49ZWmoJ0-216" value="" style="rounded=0;orthogonalLoop=1;jettySize=auto;html=1;endArrow=none;endFill=0;exitX=1;exitY=0.5;exitDx=0;exitDy=0;edgeStyle=orthogonalEdgeStyle;" parent="1" source="8QP9LGqgboKZ49ZWmoJ0-199" target="8QP9LGqgboKZ49ZWmoJ0-215" edge="1">
          <mxGeometry relative="1" as="geometry">
            <mxPoint x="650" y="2062" as="sourcePoint" />
          </mxGeometry>
        </mxCell>
        <mxCell id="8QP9LGqgboKZ49ZWmoJ0-217" style="edgeStyle=orthogonalEdgeStyle;rounded=0;orthogonalLoop=1;jettySize=auto;html=1;exitX=0.75;exitY=1;exitDx=0;exitDy=0;entryX=0.611;entryY=0.006;entryDx=0;entryDy=0;entryPerimeter=0;endArrow=none;endFill=0;" parent="1" source="8QP9LGqgboKZ49ZWmoJ0-194" target="8QP9LGqgboKZ49ZWmoJ0-195" edge="1">
          <mxGeometry relative="1" as="geometry" />
        </mxCell>
        <mxCell id="8QP9LGqgboKZ49ZWmoJ0-218" style="edgeStyle=orthogonalEdgeStyle;rounded=0;orthogonalLoop=1;jettySize=auto;html=1;exitX=0.5;exitY=0;exitDx=0;exitDy=0;endArrow=ERmandOne;endFill=0;entryX=0.995;entryY=0.651;entryDx=0;entryDy=0;entryPerimeter=0;" parent="1" source="8QP9LGqgboKZ49ZWmoJ0-221" target="8QP9LGqgboKZ49ZWmoJ0-184" edge="1">
          <mxGeometry relative="1" as="geometry">
            <mxPoint x="190" y="1962" as="targetPoint" />
          </mxGeometry>
        </mxCell>
        <mxCell id="8QP9LGqgboKZ49ZWmoJ0-219" style="rounded=0;orthogonalLoop=1;jettySize=auto;html=1;exitX=1;exitY=0.5;exitDx=0;exitDy=0;entryX=0;entryY=0.5;entryDx=0;entryDy=0;endArrow=ERzeroToMany;endFill=0;elbow=vertical;" parent="1" source="8QP9LGqgboKZ49ZWmoJ0-221" target="8QP9LGqgboKZ49ZWmoJ0-194" edge="1">
          <mxGeometry relative="1" as="geometry">
            <mxPoint x="717" y="2014" as="targetPoint" />
          </mxGeometry>
        </mxCell>
        <mxCell id="8QP9LGqgboKZ49ZWmoJ0-220" style="edgeStyle=orthogonalEdgeStyle;rounded=0;orthogonalLoop=1;jettySize=auto;html=1;exitX=0.5;exitY=1;exitDx=0;exitDy=0;entryX=1.003;entryY=0.827;entryDx=0;entryDy=0;endArrow=ERzeroToMany;endFill=0;entryPerimeter=0;" parent="1" source="8QP9LGqgboKZ49ZWmoJ0-221" target="8QP9LGqgboKZ49ZWmoJ0-225" edge="1">
          <mxGeometry relative="1" as="geometry" />
        </mxCell>
        <mxCell id="8QP9LGqgboKZ49ZWmoJ0-221" value="borrow" style="shape=rhombus;perimeter=rhombusPerimeter;whiteSpace=wrap;html=1;align=center;" parent="1" vertex="1">
          <mxGeometry x="347" y="2027.5" width="79" height="60" as="geometry" />
        </mxCell>
        <mxCell id="8QP9LGqgboKZ49ZWmoJ0-222" value="" style="edgeStyle=orthogonalEdgeStyle;rounded=0;orthogonalLoop=1;jettySize=auto;html=1;endArrow=none;endFill=0;" parent="1" source="8QP9LGqgboKZ49ZWmoJ0-225" target="8QP9LGqgboKZ49ZWmoJ0-226" edge="1">
          <mxGeometry relative="1" as="geometry" />
        </mxCell>
        <mxCell id="8QP9LGqgboKZ49ZWmoJ0-223" value="" style="edgeStyle=orthogonalEdgeStyle;rounded=0;orthogonalLoop=1;jettySize=auto;html=1;endArrow=none;endFill=0;" parent="1" source="8QP9LGqgboKZ49ZWmoJ0-225" target="8QP9LGqgboKZ49ZWmoJ0-227" edge="1">
          <mxGeometry relative="1" as="geometry" />
        </mxCell>
        <mxCell id="8QP9LGqgboKZ49ZWmoJ0-224" style="edgeStyle=orthogonalEdgeStyle;rounded=0;orthogonalLoop=1;jettySize=auto;html=1;exitX=0.334;exitY=0.995;exitDx=0;exitDy=0;endArrow=none;endFill=0;exitPerimeter=0;" parent="1" source="8QP9LGqgboKZ49ZWmoJ0-225" target="8QP9LGqgboKZ49ZWmoJ0-230" edge="1">
          <mxGeometry relative="1" as="geometry">
            <Array as="points" />
          </mxGeometry>
        </mxCell>
        <mxCell id="8QP9LGqgboKZ49ZWmoJ0-225" value="Book" style="rounded=0;whiteSpace=wrap;html=1;" parent="1" vertex="1">
          <mxGeometry x="43" y="2227" width="120" height="60" as="geometry" />
        </mxCell>
        <mxCell id="8QP9LGqgboKZ49ZWmoJ0-226" value="ISBN" style="ellipse;whiteSpace=wrap;html=1;rounded=0;fontStyle=4" parent="1" vertex="1">
          <mxGeometry x="63" y="2137" width="80" height="50" as="geometry" />
        </mxCell>
        <mxCell id="8QP9LGqgboKZ49ZWmoJ0-227" value="title" style="ellipse;whiteSpace=wrap;html=1;rounded=0;" parent="1" vertex="1">
          <mxGeometry x="173" y="2167" width="80" height="50" as="geometry" />
        </mxCell>
        <mxCell id="8QP9LGqgboKZ49ZWmoJ0-228" value="description" style="ellipse;whiteSpace=wrap;html=1;rounded=0;" parent="1" vertex="1">
          <mxGeometry x="-132" y="2232" width="80" height="50" as="geometry" />
        </mxCell>
        <mxCell id="8QP9LGqgboKZ49ZWmoJ0-229" value="" style="rounded=0;orthogonalLoop=1;jettySize=auto;html=1;endArrow=none;endFill=0;exitX=0;exitY=0.5;exitDx=0;exitDy=0;" parent="1" source="8QP9LGqgboKZ49ZWmoJ0-225" target="8QP9LGqgboKZ49ZWmoJ0-228" edge="1">
          <mxGeometry relative="1" as="geometry">
            <mxPoint x="223" y="2337" as="sourcePoint" />
          </mxGeometry>
        </mxCell>
        <mxCell id="8QP9LGqgboKZ49ZWmoJ0-230" value="reviews" style="ellipse;shape=doubleEllipse;margin=3;whiteSpace=wrap;html=1;align=center;" parent="1" vertex="1">
          <mxGeometry x="33" y="2367" width="100" height="40" as="geometry" />
        </mxCell>
        <mxCell id="8QP9LGqgboKZ49ZWmoJ0-231" value="writes" style="shape=rhombus;perimeter=rhombusPerimeter;whiteSpace=wrap;html=1;align=center;" parent="1" vertex="1">
          <mxGeometry x="302" y="2347" width="120" height="60" as="geometry" />
        </mxCell>
        <mxCell id="8QP9LGqgboKZ49ZWmoJ0-232" value="" style="edgeStyle=orthogonalEdgeStyle;rounded=0;orthogonalLoop=1;jettySize=auto;html=1;endArrow=none;endFill=0;" parent="1" source="8QP9LGqgboKZ49ZWmoJ0-234" target="8QP9LGqgboKZ49ZWmoJ0-235" edge="1">
          <mxGeometry relative="1" as="geometry" />
        </mxCell>
        <mxCell id="8QP9LGqgboKZ49ZWmoJ0-233" style="rounded=0;orthogonalLoop=1;jettySize=auto;html=1;endArrow=ERmandOne;endFill=0;exitX=1;exitY=0.5;exitDx=0;exitDy=0;entryX=0.5;entryY=0;entryDx=0;entryDy=0;edgeStyle=orthogonalEdgeStyle;" parent="1" source="8QP9LGqgboKZ49ZWmoJ0-231" target="8QP9LGqgboKZ49ZWmoJ0-234" edge="1">
          <mxGeometry relative="1" as="geometry">
            <mxPoint x="311" y="2500" as="sourcePoint" />
            <mxPoint x="211" y="2500" as="targetPoint" />
          </mxGeometry>
        </mxCell>
        <mxCell id="8QP9LGqgboKZ49ZWmoJ0-234" value="Author" style="rounded=0;whiteSpace=wrap;html=1;" parent="1" vertex="1">
          <mxGeometry x="600" y="2426" width="120" height="36" as="geometry" />
        </mxCell>
        <mxCell id="8QP9LGqgboKZ49ZWmoJ0-235" value="name" style="ellipse;whiteSpace=wrap;html=1;rounded=0;" parent="1" vertex="1">
          <mxGeometry x="464" y="2419" width="80" height="50" as="geometry" />
        </mxCell>
        <mxCell id="8QP9LGqgboKZ49ZWmoJ0-236" value="" style="rounded=0;orthogonalLoop=1;jettySize=auto;html=1;endArrow=none;endFill=0;exitX=1;exitY=0.5;exitDx=0;exitDy=0;entryX=0;entryY=0.5;entryDx=0;entryDy=0;" parent="1" source="8QP9LGqgboKZ49ZWmoJ0-234" target="8QP9LGqgboKZ49ZWmoJ0-241" edge="1">
          <mxGeometry relative="1" as="geometry">
            <mxPoint x="783" y="2536" as="sourcePoint" />
            <mxPoint x="793" y="2471" as="targetPoint" />
          </mxGeometry>
        </mxCell>
        <mxCell id="8QP9LGqgboKZ49ZWmoJ0-237" style="edgeStyle=orthogonalEdgeStyle;rounded=0;orthogonalLoop=1;jettySize=auto;html=1;exitX=0.5;exitY=0;exitDx=0;exitDy=0;entryX=0.842;entryY=0.983;entryDx=0;entryDy=0;entryPerimeter=0;endArrow=ERzeroToMany;endFill=0;" parent="1" source="8QP9LGqgboKZ49ZWmoJ0-231" target="8QP9LGqgboKZ49ZWmoJ0-225" edge="1">
          <mxGeometry relative="1" as="geometry" />
        </mxCell>
        <mxCell id="8QP9LGqgboKZ49ZWmoJ0-238" value="date" style="ellipse;whiteSpace=wrap;html=1;rounded=0;" parent="1" vertex="1">
          <mxGeometry x="253" y="2043" width="49" height="25" as="geometry" />
        </mxCell>
        <mxCell id="8QP9LGqgboKZ49ZWmoJ0-240" value="card_number" style="ellipse;whiteSpace=wrap;html=1;align=center;fontStyle=4;" parent="1" vertex="1">
          <mxGeometry x="688" y="1700" width="100" height="32" as="geometry" />
        </mxCell>
        <mxCell id="8QP9LGqgboKZ49ZWmoJ0-241" value="author_id" style="ellipse;whiteSpace=wrap;html=1;align=center;fontStyle=4;" parent="1" vertex="1">
          <mxGeometry x="768" y="2426" width="100" height="40" as="geometry" />
        </mxCell>
        <mxCell id="8QP9LGqgboKZ49ZWmoJ0-245" style="rounded=0;orthogonalLoop=1;jettySize=auto;html=1;exitX=0;exitY=0.5;exitDx=0;exitDy=0;entryX=0.997;entryY=0.555;entryDx=0;entryDy=0;entryPerimeter=0;endArrow=none;endFill=0;" parent="1" source="8QP9LGqgboKZ49ZWmoJ0-221" target="8QP9LGqgboKZ49ZWmoJ0-238" edge="1">
          <mxGeometry relative="1" as="geometry" />
        </mxCell>
        <mxCell id="mFe6300Wkr-B0AUd0ANs-14" value="&lt;span style=&quot;text-wrap: wrap;&quot;&gt;Member Card&lt;/span&gt;" style="shape=table;startSize=30;container=1;collapsible=1;childLayout=tableLayout;fixedRows=1;rowLines=0;fontStyle=1;align=center;resizeLast=1;html=1;" vertex="1" parent="1">
          <mxGeometry x="573" y="2849" width="180" height="120" as="geometry" />
        </mxCell>
        <mxCell id="mFe6300Wkr-B0AUd0ANs-15" value="" style="shape=tableRow;horizontal=0;startSize=0;swimlaneHead=0;swimlaneBody=0;fillColor=none;collapsible=0;dropTarget=0;points=[[0,0.5],[1,0.5]];portConstraint=eastwest;top=0;left=0;right=0;bottom=1;" vertex="1" parent="mFe6300Wkr-B0AUd0ANs-14">
          <mxGeometry y="30" width="180" height="30" as="geometry" />
        </mxCell>
        <mxCell id="mFe6300Wkr-B0AUd0ANs-16" value="PK" style="shape=partialRectangle;connectable=0;fillColor=none;top=0;left=0;bottom=0;right=0;fontStyle=1;overflow=hidden;whiteSpace=wrap;html=1;" vertex="1" parent="mFe6300Wkr-B0AUd0ANs-15">
          <mxGeometry width="30" height="30" as="geometry">
            <mxRectangle width="30" height="30" as="alternateBounds" />
          </mxGeometry>
        </mxCell>
        <mxCell id="mFe6300Wkr-B0AUd0ANs-17" value="card_number" style="shape=partialRectangle;connectable=0;fillColor=none;top=0;left=0;bottom=0;right=0;align=left;spacingLeft=6;fontStyle=5;overflow=hidden;whiteSpace=wrap;html=1;" vertex="1" parent="mFe6300Wkr-B0AUd0ANs-15">
          <mxGeometry x="30" width="150" height="30" as="geometry">
            <mxRectangle width="150" height="30" as="alternateBounds" />
          </mxGeometry>
        </mxCell>
        <mxCell id="mFe6300Wkr-B0AUd0ANs-18" value="" style="shape=tableRow;horizontal=0;startSize=0;swimlaneHead=0;swimlaneBody=0;fillColor=none;collapsible=0;dropTarget=0;points=[[0,0.5],[1,0.5]];portConstraint=eastwest;top=0;left=0;right=0;bottom=0;" vertex="1" parent="mFe6300Wkr-B0AUd0ANs-14">
          <mxGeometry y="60" width="180" height="30" as="geometry" />
        </mxCell>
        <mxCell id="mFe6300Wkr-B0AUd0ANs-19" value="" style="shape=partialRectangle;connectable=0;fillColor=none;top=0;left=0;bottom=0;right=0;editable=1;overflow=hidden;whiteSpace=wrap;html=1;" vertex="1" parent="mFe6300Wkr-B0AUd0ANs-18">
          <mxGeometry width="30" height="30" as="geometry">
            <mxRectangle width="30" height="30" as="alternateBounds" />
          </mxGeometry>
        </mxCell>
        <mxCell id="mFe6300Wkr-B0AUd0ANs-20" value="issued_date" style="shape=partialRectangle;connectable=0;fillColor=none;top=0;left=0;bottom=0;right=0;align=left;spacingLeft=6;overflow=hidden;whiteSpace=wrap;html=1;" vertex="1" parent="mFe6300Wkr-B0AUd0ANs-18">
          <mxGeometry x="30" width="150" height="30" as="geometry">
            <mxRectangle width="150" height="30" as="alternateBounds" />
          </mxGeometry>
        </mxCell>
        <mxCell id="mFe6300Wkr-B0AUd0ANs-21" value="" style="shape=tableRow;horizontal=0;startSize=0;swimlaneHead=0;swimlaneBody=0;fillColor=none;collapsible=0;dropTarget=0;points=[[0,0.5],[1,0.5]];portConstraint=eastwest;top=0;left=0;right=0;bottom=0;" vertex="1" parent="mFe6300Wkr-B0AUd0ANs-14">
          <mxGeometry y="90" width="180" height="30" as="geometry" />
        </mxCell>
        <mxCell id="mFe6300Wkr-B0AUd0ANs-22" value="" style="shape=partialRectangle;connectable=0;fillColor=none;top=0;left=0;bottom=0;right=0;editable=1;overflow=hidden;whiteSpace=wrap;html=1;" vertex="1" parent="mFe6300Wkr-B0AUd0ANs-21">
          <mxGeometry width="30" height="30" as="geometry">
            <mxRectangle width="30" height="30" as="alternateBounds" />
          </mxGeometry>
        </mxCell>
        <mxCell id="mFe6300Wkr-B0AUd0ANs-23" value="expiry_date" style="shape=partialRectangle;connectable=0;fillColor=none;top=0;left=0;bottom=0;right=0;align=left;spacingLeft=6;overflow=hidden;whiteSpace=wrap;html=1;" vertex="1" parent="mFe6300Wkr-B0AUd0ANs-21">
          <mxGeometry x="30" width="150" height="30" as="geometry">
            <mxRectangle width="150" height="30" as="alternateBounds" />
          </mxGeometry>
        </mxCell>
        <mxCell id="mFe6300Wkr-B0AUd0ANs-27" value="Member" style="shape=table;startSize=30;container=1;collapsible=1;childLayout=tableLayout;fixedRows=1;rowLines=0;fontStyle=1;align=center;resizeLast=1;html=1;" vertex="1" parent="1">
          <mxGeometry x="325" y="2652" width="180" height="270" as="geometry" />
        </mxCell>
        <mxCell id="mFe6300Wkr-B0AUd0ANs-28" value="" style="shape=tableRow;horizontal=0;startSize=0;swimlaneHead=0;swimlaneBody=0;fillColor=none;collapsible=0;dropTarget=0;points=[[0,0.5],[1,0.5]];portConstraint=eastwest;top=0;left=0;right=0;bottom=1;" vertex="1" parent="mFe6300Wkr-B0AUd0ANs-27">
          <mxGeometry y="30" width="180" height="30" as="geometry" />
        </mxCell>
        <mxCell id="mFe6300Wkr-B0AUd0ANs-29" value="PK" style="shape=partialRectangle;connectable=0;fillColor=none;top=0;left=0;bottom=0;right=0;fontStyle=1;overflow=hidden;whiteSpace=wrap;html=1;" vertex="1" parent="mFe6300Wkr-B0AUd0ANs-28">
          <mxGeometry width="30" height="30" as="geometry">
            <mxRectangle width="30" height="30" as="alternateBounds" />
          </mxGeometry>
        </mxCell>
        <mxCell id="mFe6300Wkr-B0AUd0ANs-30" value="member_id" style="shape=partialRectangle;connectable=0;fillColor=none;top=0;left=0;bottom=0;right=0;align=left;spacingLeft=6;fontStyle=5;overflow=hidden;whiteSpace=wrap;html=1;" vertex="1" parent="mFe6300Wkr-B0AUd0ANs-28">
          <mxGeometry x="30" width="150" height="30" as="geometry">
            <mxRectangle width="150" height="30" as="alternateBounds" />
          </mxGeometry>
        </mxCell>
        <mxCell id="mFe6300Wkr-B0AUd0ANs-54" value="" style="shape=tableRow;horizontal=0;startSize=0;swimlaneHead=0;swimlaneBody=0;fillColor=none;collapsible=0;dropTarget=0;points=[[0,0.5],[1,0.5]];portConstraint=eastwest;top=0;left=0;right=0;bottom=1;" vertex="1" parent="mFe6300Wkr-B0AUd0ANs-27">
          <mxGeometry y="60" width="180" height="30" as="geometry" />
        </mxCell>
        <mxCell id="mFe6300Wkr-B0AUd0ANs-55" value="FK" style="shape=partialRectangle;connectable=0;fillColor=none;top=0;left=0;bottom=0;right=0;fontStyle=1;overflow=hidden;whiteSpace=wrap;html=1;" vertex="1" parent="mFe6300Wkr-B0AUd0ANs-54">
          <mxGeometry width="30" height="30" as="geometry">
            <mxRectangle width="30" height="30" as="alternateBounds" />
          </mxGeometry>
        </mxCell>
        <mxCell id="mFe6300Wkr-B0AUd0ANs-56" value="card_number" style="shape=partialRectangle;connectable=0;fillColor=none;top=0;left=0;bottom=0;right=0;align=left;spacingLeft=6;fontStyle=1;overflow=hidden;whiteSpace=wrap;html=1;" vertex="1" parent="mFe6300Wkr-B0AUd0ANs-54">
          <mxGeometry x="30" width="150" height="30" as="geometry">
            <mxRectangle width="150" height="30" as="alternateBounds" />
          </mxGeometry>
        </mxCell>
        <mxCell id="mFe6300Wkr-B0AUd0ANs-31" value="" style="shape=tableRow;horizontal=0;startSize=0;swimlaneHead=0;swimlaneBody=0;fillColor=none;collapsible=0;dropTarget=0;points=[[0,0.5],[1,0.5]];portConstraint=eastwest;top=0;left=0;right=0;bottom=0;" vertex="1" parent="mFe6300Wkr-B0AUd0ANs-27">
          <mxGeometry y="90" width="180" height="30" as="geometry" />
        </mxCell>
        <mxCell id="mFe6300Wkr-B0AUd0ANs-32" value="" style="shape=partialRectangle;connectable=0;fillColor=none;top=0;left=0;bottom=0;right=0;editable=1;overflow=hidden;whiteSpace=wrap;html=1;" vertex="1" parent="mFe6300Wkr-B0AUd0ANs-31">
          <mxGeometry width="30" height="30" as="geometry">
            <mxRectangle width="30" height="30" as="alternateBounds" />
          </mxGeometry>
        </mxCell>
        <mxCell id="mFe6300Wkr-B0AUd0ANs-33" value="name" style="shape=partialRectangle;connectable=0;fillColor=none;top=0;left=0;bottom=0;right=0;align=left;spacingLeft=6;overflow=hidden;whiteSpace=wrap;html=1;" vertex="1" parent="mFe6300Wkr-B0AUd0ANs-31">
          <mxGeometry x="30" width="150" height="30" as="geometry">
            <mxRectangle width="150" height="30" as="alternateBounds" />
          </mxGeometry>
        </mxCell>
        <mxCell id="mFe6300Wkr-B0AUd0ANs-34" value="" style="shape=tableRow;horizontal=0;startSize=0;swimlaneHead=0;swimlaneBody=0;fillColor=none;collapsible=0;dropTarget=0;points=[[0,0.5],[1,0.5]];portConstraint=eastwest;top=0;left=0;right=0;bottom=0;" vertex="1" parent="mFe6300Wkr-B0AUd0ANs-27">
          <mxGeometry y="120" width="180" height="30" as="geometry" />
        </mxCell>
        <mxCell id="mFe6300Wkr-B0AUd0ANs-35" value="" style="shape=partialRectangle;connectable=0;fillColor=none;top=0;left=0;bottom=0;right=0;editable=1;overflow=hidden;whiteSpace=wrap;html=1;" vertex="1" parent="mFe6300Wkr-B0AUd0ANs-34">
          <mxGeometry width="30" height="30" as="geometry">
            <mxRectangle width="30" height="30" as="alternateBounds" />
          </mxGeometry>
        </mxCell>
        <mxCell id="mFe6300Wkr-B0AUd0ANs-36" value="date_of_birth" style="shape=partialRectangle;connectable=0;fillColor=none;top=0;left=0;bottom=0;right=0;align=left;spacingLeft=6;overflow=hidden;whiteSpace=wrap;html=1;" vertex="1" parent="mFe6300Wkr-B0AUd0ANs-34">
          <mxGeometry x="30" width="150" height="30" as="geometry">
            <mxRectangle width="150" height="30" as="alternateBounds" />
          </mxGeometry>
        </mxCell>
        <mxCell id="mFe6300Wkr-B0AUd0ANs-37" value="" style="shape=tableRow;horizontal=0;startSize=0;swimlaneHead=0;swimlaneBody=0;fillColor=none;collapsible=0;dropTarget=0;points=[[0,0.5],[1,0.5]];portConstraint=eastwest;top=0;left=0;right=0;bottom=0;" vertex="1" parent="mFe6300Wkr-B0AUd0ANs-27">
          <mxGeometry y="150" width="180" height="30" as="geometry" />
        </mxCell>
        <mxCell id="mFe6300Wkr-B0AUd0ANs-38" value="" style="shape=partialRectangle;connectable=0;fillColor=none;top=0;left=0;bottom=0;right=0;editable=1;overflow=hidden;whiteSpace=wrap;html=1;" vertex="1" parent="mFe6300Wkr-B0AUd0ANs-37">
          <mxGeometry width="30" height="30" as="geometry">
            <mxRectangle width="30" height="30" as="alternateBounds" />
          </mxGeometry>
        </mxCell>
        <mxCell id="mFe6300Wkr-B0AUd0ANs-39" value="age" style="shape=partialRectangle;connectable=0;fillColor=none;top=0;left=0;bottom=0;right=0;align=left;spacingLeft=6;overflow=hidden;whiteSpace=wrap;html=1;" vertex="1" parent="mFe6300Wkr-B0AUd0ANs-37">
          <mxGeometry x="30" width="150" height="30" as="geometry">
            <mxRectangle width="150" height="30" as="alternateBounds" />
          </mxGeometry>
        </mxCell>
        <mxCell id="mFe6300Wkr-B0AUd0ANs-58" value="" style="shape=tableRow;horizontal=0;startSize=0;swimlaneHead=0;swimlaneBody=0;fillColor=none;collapsible=0;dropTarget=0;points=[[0,0.5],[1,0.5]];portConstraint=eastwest;top=0;left=0;right=0;bottom=0;" vertex="1" parent="mFe6300Wkr-B0AUd0ANs-27">
          <mxGeometry y="180" width="180" height="30" as="geometry" />
        </mxCell>
        <mxCell id="mFe6300Wkr-B0AUd0ANs-59" value="" style="shape=partialRectangle;connectable=0;fillColor=none;top=0;left=0;bottom=0;right=0;editable=1;overflow=hidden;whiteSpace=wrap;html=1;" vertex="1" parent="mFe6300Wkr-B0AUd0ANs-58">
          <mxGeometry width="30" height="30" as="geometry">
            <mxRectangle width="30" height="30" as="alternateBounds" />
          </mxGeometry>
        </mxCell>
        <mxCell id="mFe6300Wkr-B0AUd0ANs-60" value="postal_code" style="shape=partialRectangle;connectable=0;fillColor=none;top=0;left=0;bottom=0;right=0;align=left;spacingLeft=6;overflow=hidden;whiteSpace=wrap;html=1;" vertex="1" parent="mFe6300Wkr-B0AUd0ANs-58">
          <mxGeometry x="30" width="150" height="30" as="geometry">
            <mxRectangle width="150" height="30" as="alternateBounds" />
          </mxGeometry>
        </mxCell>
        <mxCell id="mFe6300Wkr-B0AUd0ANs-61" value="" style="shape=tableRow;horizontal=0;startSize=0;swimlaneHead=0;swimlaneBody=0;fillColor=none;collapsible=0;dropTarget=0;points=[[0,0.5],[1,0.5]];portConstraint=eastwest;top=0;left=0;right=0;bottom=0;" vertex="1" parent="mFe6300Wkr-B0AUd0ANs-27">
          <mxGeometry y="210" width="180" height="30" as="geometry" />
        </mxCell>
        <mxCell id="mFe6300Wkr-B0AUd0ANs-62" value="" style="shape=partialRectangle;connectable=0;fillColor=none;top=0;left=0;bottom=0;right=0;editable=1;overflow=hidden;whiteSpace=wrap;html=1;" vertex="1" parent="mFe6300Wkr-B0AUd0ANs-61">
          <mxGeometry width="30" height="30" as="geometry">
            <mxRectangle width="30" height="30" as="alternateBounds" />
          </mxGeometry>
        </mxCell>
        <mxCell id="mFe6300Wkr-B0AUd0ANs-63" value="street" style="shape=partialRectangle;connectable=0;fillColor=none;top=0;left=0;bottom=0;right=0;align=left;spacingLeft=6;overflow=hidden;whiteSpace=wrap;html=1;" vertex="1" parent="mFe6300Wkr-B0AUd0ANs-61">
          <mxGeometry x="30" width="150" height="30" as="geometry">
            <mxRectangle width="150" height="30" as="alternateBounds" />
          </mxGeometry>
        </mxCell>
        <mxCell id="mFe6300Wkr-B0AUd0ANs-64" value="" style="shape=tableRow;horizontal=0;startSize=0;swimlaneHead=0;swimlaneBody=0;fillColor=none;collapsible=0;dropTarget=0;points=[[0,0.5],[1,0.5]];portConstraint=eastwest;top=0;left=0;right=0;bottom=0;" vertex="1" parent="mFe6300Wkr-B0AUd0ANs-27">
          <mxGeometry y="240" width="180" height="30" as="geometry" />
        </mxCell>
        <mxCell id="mFe6300Wkr-B0AUd0ANs-65" value="" style="shape=partialRectangle;connectable=0;fillColor=none;top=0;left=0;bottom=0;right=0;editable=1;overflow=hidden;whiteSpace=wrap;html=1;" vertex="1" parent="mFe6300Wkr-B0AUd0ANs-64">
          <mxGeometry width="30" height="30" as="geometry">
            <mxRectangle width="30" height="30" as="alternateBounds" />
          </mxGeometry>
        </mxCell>
        <mxCell id="mFe6300Wkr-B0AUd0ANs-66" value="city" style="shape=partialRectangle;connectable=0;fillColor=none;top=0;left=0;bottom=0;right=0;align=left;spacingLeft=6;overflow=hidden;whiteSpace=wrap;html=1;" vertex="1" parent="mFe6300Wkr-B0AUd0ANs-64">
          <mxGeometry x="30" width="150" height="30" as="geometry">
            <mxRectangle width="150" height="30" as="alternateBounds" />
          </mxGeometry>
        </mxCell>
        <mxCell id="mFe6300Wkr-B0AUd0ANs-57" style="rounded=0;orthogonalLoop=1;jettySize=auto;html=1;exitX=1;exitY=0.5;exitDx=0;exitDy=0;entryX=0;entryY=0.5;entryDx=0;entryDy=0;edgeStyle=orthogonalEdgeStyle;" edge="1" parent="1" source="mFe6300Wkr-B0AUd0ANs-54" target="mFe6300Wkr-B0AUd0ANs-15">
          <mxGeometry relative="1" as="geometry" />
        </mxCell>
        <mxCell id="mFe6300Wkr-B0AUd0ANs-103" value="&lt;span style=&quot;text-wrap: wrap;&quot;&gt;Author&lt;/span&gt;" style="shape=table;startSize=30;container=1;collapsible=1;childLayout=tableLayout;fixedRows=1;rowLines=0;fontStyle=1;align=center;resizeLast=1;html=1;" vertex="1" parent="1">
          <mxGeometry x="-40.26" y="3138" width="180" height="120" as="geometry" />
        </mxCell>
        <mxCell id="mFe6300Wkr-B0AUd0ANs-104" value="" style="shape=tableRow;horizontal=0;startSize=0;swimlaneHead=0;swimlaneBody=0;fillColor=none;collapsible=0;dropTarget=0;points=[[0,0.5],[1,0.5]];portConstraint=eastwest;top=0;left=0;right=0;bottom=1;" vertex="1" parent="mFe6300Wkr-B0AUd0ANs-103">
          <mxGeometry y="30" width="180" height="30" as="geometry" />
        </mxCell>
        <mxCell id="mFe6300Wkr-B0AUd0ANs-105" value="PK" style="shape=partialRectangle;connectable=0;fillColor=none;top=0;left=0;bottom=0;right=0;fontStyle=1;overflow=hidden;whiteSpace=wrap;html=1;" vertex="1" parent="mFe6300Wkr-B0AUd0ANs-104">
          <mxGeometry width="30" height="30" as="geometry">
            <mxRectangle width="30" height="30" as="alternateBounds" />
          </mxGeometry>
        </mxCell>
        <mxCell id="mFe6300Wkr-B0AUd0ANs-106" value="author_id" style="shape=partialRectangle;connectable=0;fillColor=none;top=0;left=0;bottom=0;right=0;align=left;spacingLeft=6;fontStyle=5;overflow=hidden;whiteSpace=wrap;html=1;" vertex="1" parent="mFe6300Wkr-B0AUd0ANs-104">
          <mxGeometry x="30" width="150" height="30" as="geometry">
            <mxRectangle width="150" height="30" as="alternateBounds" />
          </mxGeometry>
        </mxCell>
        <mxCell id="mFe6300Wkr-B0AUd0ANs-107" value="" style="shape=tableRow;horizontal=0;startSize=0;swimlaneHead=0;swimlaneBody=0;fillColor=none;collapsible=0;dropTarget=0;points=[[0,0.5],[1,0.5]];portConstraint=eastwest;top=0;left=0;right=0;bottom=0;" vertex="1" parent="mFe6300Wkr-B0AUd0ANs-103">
          <mxGeometry y="60" width="180" height="30" as="geometry" />
        </mxCell>
        <mxCell id="mFe6300Wkr-B0AUd0ANs-108" value="" style="shape=partialRectangle;connectable=0;fillColor=none;top=0;left=0;bottom=0;right=0;editable=1;overflow=hidden;whiteSpace=wrap;html=1;" vertex="1" parent="mFe6300Wkr-B0AUd0ANs-107">
          <mxGeometry width="30" height="30" as="geometry">
            <mxRectangle width="30" height="30" as="alternateBounds" />
          </mxGeometry>
        </mxCell>
        <mxCell id="mFe6300Wkr-B0AUd0ANs-109" value="name" style="shape=partialRectangle;connectable=0;fillColor=none;top=0;left=0;bottom=0;right=0;align=left;spacingLeft=6;overflow=hidden;whiteSpace=wrap;html=1;" vertex="1" parent="mFe6300Wkr-B0AUd0ANs-107">
          <mxGeometry x="30" width="150" height="30" as="geometry">
            <mxRectangle width="150" height="30" as="alternateBounds" />
          </mxGeometry>
        </mxCell>
        <mxCell id="mFe6300Wkr-B0AUd0ANs-292" value="" style="shape=tableRow;horizontal=0;startSize=0;swimlaneHead=0;swimlaneBody=0;fillColor=none;collapsible=0;dropTarget=0;points=[[0,0.5],[1,0.5]];portConstraint=eastwest;top=0;left=0;right=0;bottom=0;" vertex="1" parent="mFe6300Wkr-B0AUd0ANs-103">
          <mxGeometry y="90" width="180" height="30" as="geometry" />
        </mxCell>
        <mxCell id="mFe6300Wkr-B0AUd0ANs-293" value="" style="shape=partialRectangle;connectable=0;fillColor=none;top=0;left=0;bottom=0;right=0;editable=1;overflow=hidden;whiteSpace=wrap;html=1;" vertex="1" parent="mFe6300Wkr-B0AUd0ANs-292">
          <mxGeometry width="30" height="30" as="geometry">
            <mxRectangle width="30" height="30" as="alternateBounds" />
          </mxGeometry>
        </mxCell>
        <mxCell id="mFe6300Wkr-B0AUd0ANs-294" value="description" style="shape=partialRectangle;connectable=0;fillColor=none;top=0;left=0;bottom=0;right=0;align=left;spacingLeft=6;overflow=hidden;whiteSpace=wrap;html=1;" vertex="1" parent="mFe6300Wkr-B0AUd0ANs-292">
          <mxGeometry x="30" width="150" height="30" as="geometry">
            <mxRectangle width="150" height="30" as="alternateBounds" />
          </mxGeometry>
        </mxCell>
        <mxCell id="mFe6300Wkr-B0AUd0ANs-113" value="Book" style="shape=table;startSize=30;container=1;collapsible=1;childLayout=tableLayout;fixedRows=1;rowLines=0;fontStyle=1;align=center;resizeLast=1;html=1;" vertex="1" parent="1">
          <mxGeometry x="-293" y="2912" width="180" height="150" as="geometry" />
        </mxCell>
        <mxCell id="mFe6300Wkr-B0AUd0ANs-114" value="" style="shape=tableRow;horizontal=0;startSize=0;swimlaneHead=0;swimlaneBody=0;fillColor=none;collapsible=0;dropTarget=0;points=[[0,0.5],[1,0.5]];portConstraint=eastwest;top=0;left=0;right=0;bottom=1;" vertex="1" parent="mFe6300Wkr-B0AUd0ANs-113">
          <mxGeometry y="30" width="180" height="30" as="geometry" />
        </mxCell>
        <mxCell id="mFe6300Wkr-B0AUd0ANs-115" value="PK" style="shape=partialRectangle;connectable=0;fillColor=none;top=0;left=0;bottom=0;right=0;fontStyle=1;overflow=hidden;whiteSpace=wrap;html=1;" vertex="1" parent="mFe6300Wkr-B0AUd0ANs-114">
          <mxGeometry width="30" height="30" as="geometry">
            <mxRectangle width="30" height="30" as="alternateBounds" />
          </mxGeometry>
        </mxCell>
        <mxCell id="mFe6300Wkr-B0AUd0ANs-116" value="ISBN" style="shape=partialRectangle;connectable=0;fillColor=none;top=0;left=0;bottom=0;right=0;align=left;spacingLeft=6;fontStyle=5;overflow=hidden;whiteSpace=wrap;html=1;" vertex="1" parent="mFe6300Wkr-B0AUd0ANs-114">
          <mxGeometry x="30" width="150" height="30" as="geometry">
            <mxRectangle width="150" height="30" as="alternateBounds" />
          </mxGeometry>
        </mxCell>
        <mxCell id="mFe6300Wkr-B0AUd0ANs-117" value="" style="shape=tableRow;horizontal=0;startSize=0;swimlaneHead=0;swimlaneBody=0;fillColor=none;collapsible=0;dropTarget=0;points=[[0,0.5],[1,0.5]];portConstraint=eastwest;top=0;left=0;right=0;bottom=1;" vertex="1" parent="mFe6300Wkr-B0AUd0ANs-113">
          <mxGeometry y="60" width="180" height="30" as="geometry" />
        </mxCell>
        <mxCell id="mFe6300Wkr-B0AUd0ANs-118" value="FK" style="shape=partialRectangle;connectable=0;fillColor=none;top=0;left=0;bottom=0;right=0;fontStyle=1;overflow=hidden;whiteSpace=wrap;html=1;" vertex="1" parent="mFe6300Wkr-B0AUd0ANs-117">
          <mxGeometry width="30" height="30" as="geometry">
            <mxRectangle width="30" height="30" as="alternateBounds" />
          </mxGeometry>
        </mxCell>
        <mxCell id="mFe6300Wkr-B0AUd0ANs-119" value="author_id" style="shape=partialRectangle;connectable=0;fillColor=none;top=0;left=0;bottom=0;right=0;align=left;spacingLeft=6;fontStyle=1;overflow=hidden;whiteSpace=wrap;html=1;" vertex="1" parent="mFe6300Wkr-B0AUd0ANs-117">
          <mxGeometry x="30" width="150" height="30" as="geometry">
            <mxRectangle width="150" height="30" as="alternateBounds" />
          </mxGeometry>
        </mxCell>
        <mxCell id="mFe6300Wkr-B0AUd0ANs-120" value="" style="shape=tableRow;horizontal=0;startSize=0;swimlaneHead=0;swimlaneBody=0;fillColor=none;collapsible=0;dropTarget=0;points=[[0,0.5],[1,0.5]];portConstraint=eastwest;top=0;left=0;right=0;bottom=0;" vertex="1" parent="mFe6300Wkr-B0AUd0ANs-113">
          <mxGeometry y="90" width="180" height="30" as="geometry" />
        </mxCell>
        <mxCell id="mFe6300Wkr-B0AUd0ANs-121" value="" style="shape=partialRectangle;connectable=0;fillColor=none;top=0;left=0;bottom=0;right=0;editable=1;overflow=hidden;whiteSpace=wrap;html=1;" vertex="1" parent="mFe6300Wkr-B0AUd0ANs-120">
          <mxGeometry width="30" height="30" as="geometry">
            <mxRectangle width="30" height="30" as="alternateBounds" />
          </mxGeometry>
        </mxCell>
        <mxCell id="mFe6300Wkr-B0AUd0ANs-122" value="title" style="shape=partialRectangle;connectable=0;fillColor=none;top=0;left=0;bottom=0;right=0;align=left;spacingLeft=6;overflow=hidden;whiteSpace=wrap;html=1;" vertex="1" parent="mFe6300Wkr-B0AUd0ANs-120">
          <mxGeometry x="30" width="150" height="30" as="geometry">
            <mxRectangle width="150" height="30" as="alternateBounds" />
          </mxGeometry>
        </mxCell>
        <mxCell id="mFe6300Wkr-B0AUd0ANs-123" value="" style="shape=tableRow;horizontal=0;startSize=0;swimlaneHead=0;swimlaneBody=0;fillColor=none;collapsible=0;dropTarget=0;points=[[0,0.5],[1,0.5]];portConstraint=eastwest;top=0;left=0;right=0;bottom=0;" vertex="1" parent="mFe6300Wkr-B0AUd0ANs-113">
          <mxGeometry y="120" width="180" height="30" as="geometry" />
        </mxCell>
        <mxCell id="mFe6300Wkr-B0AUd0ANs-124" value="" style="shape=partialRectangle;connectable=0;fillColor=none;top=0;left=0;bottom=0;right=0;editable=1;overflow=hidden;whiteSpace=wrap;html=1;" vertex="1" parent="mFe6300Wkr-B0AUd0ANs-123">
          <mxGeometry width="30" height="30" as="geometry">
            <mxRectangle width="30" height="30" as="alternateBounds" />
          </mxGeometry>
        </mxCell>
        <mxCell id="mFe6300Wkr-B0AUd0ANs-125" value="description" style="shape=partialRectangle;connectable=0;fillColor=none;top=0;left=0;bottom=0;right=0;align=left;spacingLeft=6;overflow=hidden;whiteSpace=wrap;html=1;" vertex="1" parent="mFe6300Wkr-B0AUd0ANs-123">
          <mxGeometry x="30" width="150" height="30" as="geometry">
            <mxRectangle width="150" height="30" as="alternateBounds" />
          </mxGeometry>
        </mxCell>
        <mxCell id="mFe6300Wkr-B0AUd0ANs-138" style="rounded=0;orthogonalLoop=1;jettySize=auto;html=1;exitX=1;exitY=0.5;exitDx=0;exitDy=0;entryX=0;entryY=0.5;entryDx=0;entryDy=0;edgeStyle=orthogonalEdgeStyle;" edge="1" source="mFe6300Wkr-B0AUd0ANs-117" target="mFe6300Wkr-B0AUd0ANs-104" parent="1">
          <mxGeometry relative="1" as="geometry" />
        </mxCell>
        <mxCell id="mFe6300Wkr-B0AUd0ANs-139" value="Review" style="shape=table;startSize=30;container=1;collapsible=1;childLayout=tableLayout;fixedRows=1;rowLines=0;fontStyle=1;align=center;resizeLast=1;html=1;" vertex="1" parent="1">
          <mxGeometry x="-546" y="2945" width="180" height="150" as="geometry" />
        </mxCell>
        <mxCell id="mFe6300Wkr-B0AUd0ANs-140" value="" style="shape=tableRow;horizontal=0;startSize=0;swimlaneHead=0;swimlaneBody=0;fillColor=none;collapsible=0;dropTarget=0;points=[[0,0.5],[1,0.5]];portConstraint=eastwest;top=0;left=0;right=0;bottom=1;" vertex="1" parent="mFe6300Wkr-B0AUd0ANs-139">
          <mxGeometry y="30" width="180" height="30" as="geometry" />
        </mxCell>
        <mxCell id="mFe6300Wkr-B0AUd0ANs-141" value="PK" style="shape=partialRectangle;connectable=0;fillColor=none;top=0;left=0;bottom=0;right=0;fontStyle=1;overflow=hidden;whiteSpace=wrap;html=1;" vertex="1" parent="mFe6300Wkr-B0AUd0ANs-140">
          <mxGeometry width="30" height="30" as="geometry">
            <mxRectangle width="30" height="30" as="alternateBounds" />
          </mxGeometry>
        </mxCell>
        <mxCell id="mFe6300Wkr-B0AUd0ANs-142" value="review_id" style="shape=partialRectangle;connectable=0;fillColor=none;top=0;left=0;bottom=0;right=0;align=left;spacingLeft=6;fontStyle=5;overflow=hidden;whiteSpace=wrap;html=1;" vertex="1" parent="mFe6300Wkr-B0AUd0ANs-140">
          <mxGeometry x="30" width="150" height="30" as="geometry">
            <mxRectangle width="150" height="30" as="alternateBounds" />
          </mxGeometry>
        </mxCell>
        <mxCell id="mFe6300Wkr-B0AUd0ANs-143" value="" style="shape=tableRow;horizontal=0;startSize=0;swimlaneHead=0;swimlaneBody=0;fillColor=none;collapsible=0;dropTarget=0;points=[[0,0.5],[1,0.5]];portConstraint=eastwest;top=0;left=0;right=0;bottom=1;" vertex="1" parent="mFe6300Wkr-B0AUd0ANs-139">
          <mxGeometry y="60" width="180" height="30" as="geometry" />
        </mxCell>
        <mxCell id="mFe6300Wkr-B0AUd0ANs-144" value="FK" style="shape=partialRectangle;connectable=0;fillColor=none;top=0;left=0;bottom=0;right=0;fontStyle=1;overflow=hidden;whiteSpace=wrap;html=1;" vertex="1" parent="mFe6300Wkr-B0AUd0ANs-143">
          <mxGeometry width="30" height="30" as="geometry">
            <mxRectangle width="30" height="30" as="alternateBounds" />
          </mxGeometry>
        </mxCell>
        <mxCell id="mFe6300Wkr-B0AUd0ANs-145" value="ISBN" style="shape=partialRectangle;connectable=0;fillColor=none;top=0;left=0;bottom=0;right=0;align=left;spacingLeft=6;fontStyle=1;overflow=hidden;whiteSpace=wrap;html=1;" vertex="1" parent="mFe6300Wkr-B0AUd0ANs-143">
          <mxGeometry x="30" width="150" height="30" as="geometry">
            <mxRectangle width="150" height="30" as="alternateBounds" />
          </mxGeometry>
        </mxCell>
        <mxCell id="mFe6300Wkr-B0AUd0ANs-146" value="" style="shape=tableRow;horizontal=0;startSize=0;swimlaneHead=0;swimlaneBody=0;fillColor=none;collapsible=0;dropTarget=0;points=[[0,0.5],[1,0.5]];portConstraint=eastwest;top=0;left=0;right=0;bottom=0;" vertex="1" parent="mFe6300Wkr-B0AUd0ANs-139">
          <mxGeometry y="90" width="180" height="30" as="geometry" />
        </mxCell>
        <mxCell id="mFe6300Wkr-B0AUd0ANs-147" value="" style="shape=partialRectangle;connectable=0;fillColor=none;top=0;left=0;bottom=0;right=0;editable=1;overflow=hidden;whiteSpace=wrap;html=1;" vertex="1" parent="mFe6300Wkr-B0AUd0ANs-146">
          <mxGeometry width="30" height="30" as="geometry">
            <mxRectangle width="30" height="30" as="alternateBounds" />
          </mxGeometry>
        </mxCell>
        <mxCell id="mFe6300Wkr-B0AUd0ANs-148" value="rating" style="shape=partialRectangle;connectable=0;fillColor=none;top=0;left=0;bottom=0;right=0;align=left;spacingLeft=6;overflow=hidden;whiteSpace=wrap;html=1;" vertex="1" parent="mFe6300Wkr-B0AUd0ANs-146">
          <mxGeometry x="30" width="150" height="30" as="geometry">
            <mxRectangle width="150" height="30" as="alternateBounds" />
          </mxGeometry>
        </mxCell>
        <mxCell id="mFe6300Wkr-B0AUd0ANs-149" value="" style="shape=tableRow;horizontal=0;startSize=0;swimlaneHead=0;swimlaneBody=0;fillColor=none;collapsible=0;dropTarget=0;points=[[0,0.5],[1,0.5]];portConstraint=eastwest;top=0;left=0;right=0;bottom=0;" vertex="1" parent="mFe6300Wkr-B0AUd0ANs-139">
          <mxGeometry y="120" width="180" height="30" as="geometry" />
        </mxCell>
        <mxCell id="mFe6300Wkr-B0AUd0ANs-150" value="" style="shape=partialRectangle;connectable=0;fillColor=none;top=0;left=0;bottom=0;right=0;editable=1;overflow=hidden;whiteSpace=wrap;html=1;" vertex="1" parent="mFe6300Wkr-B0AUd0ANs-149">
          <mxGeometry width="30" height="30" as="geometry">
            <mxRectangle width="30" height="30" as="alternateBounds" />
          </mxGeometry>
        </mxCell>
        <mxCell id="mFe6300Wkr-B0AUd0ANs-151" value="review" style="shape=partialRectangle;connectable=0;fillColor=none;top=0;left=0;bottom=0;right=0;align=left;spacingLeft=6;overflow=hidden;whiteSpace=wrap;html=1;" vertex="1" parent="mFe6300Wkr-B0AUd0ANs-149">
          <mxGeometry x="30" width="150" height="30" as="geometry">
            <mxRectangle width="150" height="30" as="alternateBounds" />
          </mxGeometry>
        </mxCell>
        <mxCell id="mFe6300Wkr-B0AUd0ANs-152" style="rounded=0;orthogonalLoop=1;jettySize=auto;html=1;exitX=1;exitY=0.5;exitDx=0;exitDy=0;entryX=0;entryY=0.5;entryDx=0;entryDy=0;edgeStyle=orthogonalEdgeStyle;" edge="1" parent="1" source="mFe6300Wkr-B0AUd0ANs-143" target="mFe6300Wkr-B0AUd0ANs-114">
          <mxGeometry relative="1" as="geometry" />
        </mxCell>
        <mxCell id="mFe6300Wkr-B0AUd0ANs-163" value="&lt;span style=&quot;text-wrap: wrap;&quot;&gt;Employee&lt;/span&gt;" style="shape=table;startSize=30;container=1;collapsible=1;childLayout=tableLayout;fixedRows=1;rowLines=0;fontStyle=1;align=center;resizeLast=1;html=1;" vertex="1" parent="1">
          <mxGeometry x="-159.5" y="2675" width="180" height="150" as="geometry" />
        </mxCell>
        <mxCell id="mFe6300Wkr-B0AUd0ANs-164" value="" style="shape=tableRow;horizontal=0;startSize=0;swimlaneHead=0;swimlaneBody=0;fillColor=none;collapsible=0;dropTarget=0;points=[[0,0.5],[1,0.5]];portConstraint=eastwest;top=0;left=0;right=0;bottom=1;" vertex="1" parent="mFe6300Wkr-B0AUd0ANs-163">
          <mxGeometry y="30" width="180" height="30" as="geometry" />
        </mxCell>
        <mxCell id="mFe6300Wkr-B0AUd0ANs-165" value="PK" style="shape=partialRectangle;connectable=0;fillColor=none;top=0;left=0;bottom=0;right=0;fontStyle=1;overflow=hidden;whiteSpace=wrap;html=1;" vertex="1" parent="mFe6300Wkr-B0AUd0ANs-164">
          <mxGeometry width="30" height="30" as="geometry">
            <mxRectangle width="30" height="30" as="alternateBounds" />
          </mxGeometry>
        </mxCell>
        <mxCell id="mFe6300Wkr-B0AUd0ANs-166" value="&lt;span style=&quot;text-align: center;&quot;&gt;employee_id&lt;/span&gt;" style="shape=partialRectangle;connectable=0;fillColor=none;top=0;left=0;bottom=0;right=0;align=left;spacingLeft=6;fontStyle=5;overflow=hidden;whiteSpace=wrap;html=1;" vertex="1" parent="mFe6300Wkr-B0AUd0ANs-164">
          <mxGeometry x="30" width="150" height="30" as="geometry">
            <mxRectangle width="150" height="30" as="alternateBounds" />
          </mxGeometry>
        </mxCell>
        <mxCell id="mFe6300Wkr-B0AUd0ANs-174" value="" style="shape=tableRow;horizontal=0;startSize=0;swimlaneHead=0;swimlaneBody=0;fillColor=none;collapsible=0;dropTarget=0;points=[[0,0.5],[1,0.5]];portConstraint=eastwest;top=0;left=0;right=0;bottom=1;" vertex="1" parent="mFe6300Wkr-B0AUd0ANs-163">
          <mxGeometry y="60" width="180" height="30" as="geometry" />
        </mxCell>
        <mxCell id="mFe6300Wkr-B0AUd0ANs-175" value="FK" style="shape=partialRectangle;connectable=0;fillColor=none;top=0;left=0;bottom=0;right=0;fontStyle=1;overflow=hidden;whiteSpace=wrap;html=1;" vertex="1" parent="mFe6300Wkr-B0AUd0ANs-174">
          <mxGeometry width="30" height="30" as="geometry">
            <mxRectangle width="30" height="30" as="alternateBounds" />
          </mxGeometry>
        </mxCell>
        <mxCell id="mFe6300Wkr-B0AUd0ANs-176" value="&lt;span style=&quot;font-weight: 400; text-align: center;&quot;&gt;supervisor_id&lt;/span&gt;" style="shape=partialRectangle;connectable=0;fillColor=none;top=0;left=0;bottom=0;right=0;align=left;spacingLeft=6;fontStyle=1;overflow=hidden;whiteSpace=wrap;html=1;" vertex="1" parent="mFe6300Wkr-B0AUd0ANs-174">
          <mxGeometry x="30" width="150" height="30" as="geometry">
            <mxRectangle width="150" height="30" as="alternateBounds" />
          </mxGeometry>
        </mxCell>
        <mxCell id="mFe6300Wkr-B0AUd0ANs-167" value="" style="shape=tableRow;horizontal=0;startSize=0;swimlaneHead=0;swimlaneBody=0;fillColor=none;collapsible=0;dropTarget=0;points=[[0,0.5],[1,0.5]];portConstraint=eastwest;top=0;left=0;right=0;bottom=0;" vertex="1" parent="mFe6300Wkr-B0AUd0ANs-163">
          <mxGeometry y="90" width="180" height="30" as="geometry" />
        </mxCell>
        <mxCell id="mFe6300Wkr-B0AUd0ANs-168" value="" style="shape=partialRectangle;connectable=0;fillColor=none;top=0;left=0;bottom=0;right=0;editable=1;overflow=hidden;whiteSpace=wrap;html=1;" vertex="1" parent="mFe6300Wkr-B0AUd0ANs-167">
          <mxGeometry width="30" height="30" as="geometry">
            <mxRectangle width="30" height="30" as="alternateBounds" />
          </mxGeometry>
        </mxCell>
        <mxCell id="mFe6300Wkr-B0AUd0ANs-169" value="name" style="shape=partialRectangle;connectable=0;fillColor=none;top=0;left=0;bottom=0;right=0;align=left;spacingLeft=6;overflow=hidden;whiteSpace=wrap;html=1;" vertex="1" parent="mFe6300Wkr-B0AUd0ANs-167">
          <mxGeometry x="30" width="150" height="30" as="geometry">
            <mxRectangle width="150" height="30" as="alternateBounds" />
          </mxGeometry>
        </mxCell>
        <mxCell id="mFe6300Wkr-B0AUd0ANs-178" style="rounded=0;orthogonalLoop=1;jettySize=auto;html=1;exitX=0;exitY=0.5;exitDx=0;exitDy=0;entryX=0;entryY=0.787;entryDx=0;entryDy=0;entryPerimeter=0;edgeStyle=orthogonalEdgeStyle;" edge="1" parent="mFe6300Wkr-B0AUd0ANs-163" source="mFe6300Wkr-B0AUd0ANs-174" target="mFe6300Wkr-B0AUd0ANs-164">
          <mxGeometry relative="1" as="geometry">
            <mxPoint x="-63" y="40" as="targetPoint" />
            <Array as="points">
              <mxPoint x="-33" y="75" />
              <mxPoint x="-33" y="53" />
              <mxPoint x="-8" y="53" />
            </Array>
          </mxGeometry>
        </mxCell>
        <mxCell id="mFe6300Wkr-B0AUd0ANs-289" value="" style="shape=tableRow;horizontal=0;startSize=0;swimlaneHead=0;swimlaneBody=0;fillColor=none;collapsible=0;dropTarget=0;points=[[0,0.5],[1,0.5]];portConstraint=eastwest;top=0;left=0;right=0;bottom=0;" vertex="1" parent="mFe6300Wkr-B0AUd0ANs-163">
          <mxGeometry y="120" width="180" height="30" as="geometry" />
        </mxCell>
        <mxCell id="mFe6300Wkr-B0AUd0ANs-290" value="UK" style="shape=partialRectangle;connectable=0;fillColor=none;top=0;left=0;bottom=0;right=0;editable=1;overflow=hidden;whiteSpace=wrap;html=1;" vertex="1" parent="mFe6300Wkr-B0AUd0ANs-289">
          <mxGeometry width="30" height="30" as="geometry">
            <mxRectangle width="30" height="30" as="alternateBounds" />
          </mxGeometry>
        </mxCell>
        <mxCell id="mFe6300Wkr-B0AUd0ANs-291" value="nic" style="shape=partialRectangle;connectable=0;fillColor=none;top=0;left=0;bottom=0;right=0;align=left;spacingLeft=6;overflow=hidden;whiteSpace=wrap;html=1;" vertex="1" parent="mFe6300Wkr-B0AUd0ANs-289">
          <mxGeometry x="30" width="150" height="30" as="geometry">
            <mxRectangle width="150" height="30" as="alternateBounds" />
          </mxGeometry>
        </mxCell>
        <mxCell id="mFe6300Wkr-B0AUd0ANs-180" value="&lt;span style=&quot;text-wrap: wrap;&quot;&gt;Work Schedule&lt;/span&gt;" style="shape=table;startSize=30;container=1;collapsible=1;childLayout=tableLayout;fixedRows=1;rowLines=0;fontStyle=1;align=center;resizeLast=1;html=1;" vertex="1" parent="1">
          <mxGeometry x="-434.5" y="2661" width="180" height="120" as="geometry" />
        </mxCell>
        <mxCell id="mFe6300Wkr-B0AUd0ANs-181" value="" style="shape=tableRow;horizontal=0;startSize=0;swimlaneHead=0;swimlaneBody=0;fillColor=none;collapsible=0;dropTarget=0;points=[[0,0.5],[1,0.5]];portConstraint=eastwest;top=0;left=0;right=0;bottom=1;" vertex="1" parent="mFe6300Wkr-B0AUd0ANs-180">
          <mxGeometry y="30" width="180" height="30" as="geometry" />
        </mxCell>
        <mxCell id="mFe6300Wkr-B0AUd0ANs-182" value="PK" style="shape=partialRectangle;connectable=0;fillColor=none;top=0;left=0;bottom=0;right=0;fontStyle=1;overflow=hidden;whiteSpace=wrap;html=1;" vertex="1" parent="mFe6300Wkr-B0AUd0ANs-181">
          <mxGeometry width="30" height="30" as="geometry">
            <mxRectangle width="30" height="30" as="alternateBounds" />
          </mxGeometry>
        </mxCell>
        <mxCell id="mFe6300Wkr-B0AUd0ANs-183" value="&lt;span style=&quot;font-weight: 400; text-align: center;&quot;&gt;shedule_id&lt;/span&gt;" style="shape=partialRectangle;connectable=0;fillColor=none;top=0;left=0;bottom=0;right=0;align=left;spacingLeft=6;fontStyle=5;overflow=hidden;whiteSpace=wrap;html=1;" vertex="1" parent="mFe6300Wkr-B0AUd0ANs-181">
          <mxGeometry x="30" width="150" height="30" as="geometry">
            <mxRectangle width="150" height="30" as="alternateBounds" />
          </mxGeometry>
        </mxCell>
        <mxCell id="mFe6300Wkr-B0AUd0ANs-184" value="" style="shape=tableRow;horizontal=0;startSize=0;swimlaneHead=0;swimlaneBody=0;fillColor=none;collapsible=0;dropTarget=0;points=[[0,0.5],[1,0.5]];portConstraint=eastwest;top=0;left=0;right=0;bottom=1;" vertex="1" parent="mFe6300Wkr-B0AUd0ANs-180">
          <mxGeometry y="60" width="180" height="30" as="geometry" />
        </mxCell>
        <mxCell id="mFe6300Wkr-B0AUd0ANs-185" value="FK" style="shape=partialRectangle;connectable=0;fillColor=none;top=0;left=0;bottom=0;right=0;fontStyle=1;overflow=hidden;whiteSpace=wrap;html=1;" vertex="1" parent="mFe6300Wkr-B0AUd0ANs-184">
          <mxGeometry width="30" height="30" as="geometry">
            <mxRectangle width="30" height="30" as="alternateBounds" />
          </mxGeometry>
        </mxCell>
        <mxCell id="mFe6300Wkr-B0AUd0ANs-186" value="&lt;span style=&quot;font-weight: 400; text-align: center;&quot;&gt;employee_id&lt;/span&gt;" style="shape=partialRectangle;connectable=0;fillColor=none;top=0;left=0;bottom=0;right=0;align=left;spacingLeft=6;fontStyle=1;overflow=hidden;whiteSpace=wrap;html=1;" vertex="1" parent="mFe6300Wkr-B0AUd0ANs-184">
          <mxGeometry x="30" width="150" height="30" as="geometry">
            <mxRectangle width="150" height="30" as="alternateBounds" />
          </mxGeometry>
        </mxCell>
        <mxCell id="mFe6300Wkr-B0AUd0ANs-187" value="" style="shape=tableRow;horizontal=0;startSize=0;swimlaneHead=0;swimlaneBody=0;fillColor=none;collapsible=0;dropTarget=0;points=[[0,0.5],[1,0.5]];portConstraint=eastwest;top=0;left=0;right=0;bottom=0;" vertex="1" parent="mFe6300Wkr-B0AUd0ANs-180">
          <mxGeometry y="90" width="180" height="30" as="geometry" />
        </mxCell>
        <mxCell id="mFe6300Wkr-B0AUd0ANs-188" value="" style="shape=partialRectangle;connectable=0;fillColor=none;top=0;left=0;bottom=0;right=0;editable=1;overflow=hidden;whiteSpace=wrap;html=1;" vertex="1" parent="mFe6300Wkr-B0AUd0ANs-187">
          <mxGeometry width="30" height="30" as="geometry">
            <mxRectangle width="30" height="30" as="alternateBounds" />
          </mxGeometry>
        </mxCell>
        <mxCell id="mFe6300Wkr-B0AUd0ANs-189" value="shedule" style="shape=partialRectangle;connectable=0;fillColor=none;top=0;left=0;bottom=0;right=0;align=left;spacingLeft=6;overflow=hidden;whiteSpace=wrap;html=1;" vertex="1" parent="mFe6300Wkr-B0AUd0ANs-187">
          <mxGeometry x="30" width="150" height="30" as="geometry">
            <mxRectangle width="150" height="30" as="alternateBounds" />
          </mxGeometry>
        </mxCell>
        <mxCell id="mFe6300Wkr-B0AUd0ANs-193" style="rounded=0;orthogonalLoop=1;jettySize=auto;html=1;exitX=1;exitY=0.5;exitDx=0;exitDy=0;entryX=-0.004;entryY=0.232;entryDx=0;entryDy=0;entryPerimeter=0;edgeStyle=orthogonalEdgeStyle;" edge="1" parent="1" source="mFe6300Wkr-B0AUd0ANs-184" target="mFe6300Wkr-B0AUd0ANs-164">
          <mxGeometry relative="1" as="geometry">
            <mxPoint x="-164.5" y="2738" as="targetPoint" />
          </mxGeometry>
        </mxCell>
        <mxCell id="mFe6300Wkr-B0AUd0ANs-200" value="&lt;span style=&quot;text-wrap: wrap;&quot;&gt;Borrowing&amp;nbsp; &amp;nbsp;&lt;/span&gt;" style="shape=table;startSize=30;container=1;collapsible=1;childLayout=tableLayout;fixedRows=1;rowLines=0;fontStyle=1;align=center;resizeLast=1;html=1;" vertex="1" parent="1">
          <mxGeometry x="-17" y="2849" width="156.7381184895833" height="210" as="geometry" />
        </mxCell>
        <mxCell id="mFe6300Wkr-B0AUd0ANs-224" value="" style="shape=tableRow;horizontal=0;startSize=0;swimlaneHead=0;swimlaneBody=0;fillColor=none;collapsible=0;dropTarget=0;points=[[0,0.5],[1,0.5]];portConstraint=eastwest;top=0;left=0;right=0;bottom=1;" vertex="1" parent="mFe6300Wkr-B0AUd0ANs-200">
          <mxGeometry y="30" width="156.7381184895833" height="30" as="geometry" />
        </mxCell>
        <mxCell id="mFe6300Wkr-B0AUd0ANs-225" value="PK" style="shape=partialRectangle;connectable=0;fillColor=none;top=0;left=0;bottom=0;right=0;fontStyle=1;overflow=hidden;whiteSpace=wrap;html=1;" vertex="1" parent="mFe6300Wkr-B0AUd0ANs-224">
          <mxGeometry width="44.73908797554343" height="30" as="geometry">
            <mxRectangle width="44.73908797554343" height="30" as="alternateBounds" />
          </mxGeometry>
        </mxCell>
        <mxCell id="mFe6300Wkr-B0AUd0ANs-226" value="&lt;span style=&quot;text-align: center;&quot;&gt;date_time&lt;/span&gt;" style="shape=partialRectangle;connectable=0;fillColor=none;top=0;left=0;bottom=0;right=0;align=left;spacingLeft=6;fontStyle=5;overflow=hidden;whiteSpace=wrap;html=1;" vertex="1" parent="mFe6300Wkr-B0AUd0ANs-224">
          <mxGeometry x="44.73908797554343" width="111.99903051403986" height="30" as="geometry">
            <mxRectangle width="111.99903051403986" height="30" as="alternateBounds" />
          </mxGeometry>
        </mxCell>
        <mxCell id="mFe6300Wkr-B0AUd0ANs-201" value="" style="shape=tableRow;horizontal=0;startSize=0;swimlaneHead=0;swimlaneBody=0;fillColor=none;collapsible=0;dropTarget=0;points=[[0,0.5],[1,0.5]];portConstraint=eastwest;top=0;left=0;right=0;bottom=1;" vertex="1" parent="mFe6300Wkr-B0AUd0ANs-200">
          <mxGeometry y="60" width="156.7381184895833" height="30" as="geometry" />
        </mxCell>
        <mxCell id="mFe6300Wkr-B0AUd0ANs-202" value="PK,FK" style="shape=partialRectangle;connectable=0;fillColor=none;top=0;left=0;bottom=0;right=0;fontStyle=1;overflow=hidden;whiteSpace=wrap;html=1;" vertex="1" parent="mFe6300Wkr-B0AUd0ANs-201">
          <mxGeometry width="44.73908797554343" height="30" as="geometry">
            <mxRectangle width="44.73908797554343" height="30" as="alternateBounds" />
          </mxGeometry>
        </mxCell>
        <mxCell id="mFe6300Wkr-B0AUd0ANs-203" value="ISBN" style="shape=partialRectangle;connectable=0;fillColor=none;top=0;left=0;bottom=0;right=0;align=left;spacingLeft=6;fontStyle=5;overflow=hidden;whiteSpace=wrap;html=1;" vertex="1" parent="mFe6300Wkr-B0AUd0ANs-201">
          <mxGeometry x="44.73908797554343" width="111.99903051403986" height="30" as="geometry">
            <mxRectangle width="111.99903051403986" height="30" as="alternateBounds" />
          </mxGeometry>
        </mxCell>
        <mxCell id="mFe6300Wkr-B0AUd0ANs-207" value="" style="shape=tableRow;horizontal=0;startSize=0;swimlaneHead=0;swimlaneBody=0;fillColor=none;collapsible=0;dropTarget=0;points=[[0,0.5],[1,0.5]];portConstraint=eastwest;top=0;left=0;right=0;bottom=1;" vertex="1" parent="mFe6300Wkr-B0AUd0ANs-200">
          <mxGeometry y="90" width="156.7381184895833" height="30" as="geometry" />
        </mxCell>
        <mxCell id="mFe6300Wkr-B0AUd0ANs-208" value="FK" style="shape=partialRectangle;connectable=0;fillColor=none;top=0;left=0;bottom=0;right=0;fontStyle=1;overflow=hidden;whiteSpace=wrap;html=1;" vertex="1" parent="mFe6300Wkr-B0AUd0ANs-207">
          <mxGeometry width="44.73908797554343" height="30" as="geometry">
            <mxRectangle width="44.73908797554343" height="30" as="alternateBounds" />
          </mxGeometry>
        </mxCell>
        <mxCell id="mFe6300Wkr-B0AUd0ANs-209" value="&lt;span style=&quot;font-weight: 400; text-align: center;&quot;&gt;employee_id&lt;/span&gt;" style="shape=partialRectangle;connectable=0;fillColor=none;top=0;left=0;bottom=0;right=0;align=left;spacingLeft=6;fontStyle=1;overflow=hidden;whiteSpace=wrap;html=1;" vertex="1" parent="mFe6300Wkr-B0AUd0ANs-207">
          <mxGeometry x="44.73908797554343" width="111.99903051403986" height="30" as="geometry">
            <mxRectangle width="111.99903051403986" height="30" as="alternateBounds" />
          </mxGeometry>
        </mxCell>
        <mxCell id="mFe6300Wkr-B0AUd0ANs-210" value="" style="shape=tableRow;horizontal=0;startSize=0;swimlaneHead=0;swimlaneBody=0;fillColor=none;collapsible=0;dropTarget=0;points=[[0,0.5],[1,0.5]];portConstraint=eastwest;top=0;left=0;right=0;bottom=1;" vertex="1" parent="mFe6300Wkr-B0AUd0ANs-200">
          <mxGeometry y="120" width="156.7381184895833" height="30" as="geometry" />
        </mxCell>
        <mxCell id="mFe6300Wkr-B0AUd0ANs-211" value="PK,FK" style="shape=partialRectangle;connectable=0;fillColor=none;top=0;left=0;bottom=0;right=0;fontStyle=1;overflow=hidden;whiteSpace=wrap;html=1;" vertex="1" parent="mFe6300Wkr-B0AUd0ANs-210">
          <mxGeometry width="44.73908797554343" height="30" as="geometry">
            <mxRectangle width="44.73908797554343" height="30" as="alternateBounds" />
          </mxGeometry>
        </mxCell>
        <mxCell id="mFe6300Wkr-B0AUd0ANs-212" value="member_id" style="shape=partialRectangle;connectable=0;fillColor=none;top=0;left=0;bottom=0;right=0;align=left;spacingLeft=6;fontStyle=5;overflow=hidden;whiteSpace=wrap;html=1;" vertex="1" parent="mFe6300Wkr-B0AUd0ANs-210">
          <mxGeometry x="44.73908797554343" width="111.99903051403986" height="30" as="geometry">
            <mxRectangle width="111.99903051403986" height="30" as="alternateBounds" />
          </mxGeometry>
        </mxCell>
        <mxCell id="mFe6300Wkr-B0AUd0ANs-216" value="" style="shape=tableRow;horizontal=0;startSize=0;swimlaneHead=0;swimlaneBody=0;fillColor=none;collapsible=0;dropTarget=0;points=[[0,0.5],[1,0.5]];portConstraint=eastwest;top=0;left=0;right=0;bottom=0;" vertex="1" parent="mFe6300Wkr-B0AUd0ANs-200">
          <mxGeometry y="150" width="156.7381184895833" height="30" as="geometry" />
        </mxCell>
        <mxCell id="mFe6300Wkr-B0AUd0ANs-217" value="" style="shape=partialRectangle;connectable=0;fillColor=none;top=0;left=0;bottom=0;right=0;editable=1;overflow=hidden;whiteSpace=wrap;html=1;" vertex="1" parent="mFe6300Wkr-B0AUd0ANs-216">
          <mxGeometry width="44.73908797554343" height="30" as="geometry">
            <mxRectangle width="44.73908797554343" height="30" as="alternateBounds" />
          </mxGeometry>
        </mxCell>
        <mxCell id="mFe6300Wkr-B0AUd0ANs-218" value="status" style="shape=partialRectangle;connectable=0;fillColor=none;top=0;left=0;bottom=0;right=0;align=left;spacingLeft=6;overflow=hidden;whiteSpace=wrap;html=1;fontStyle=0" vertex="1" parent="mFe6300Wkr-B0AUd0ANs-216">
          <mxGeometry x="44.73908797554343" width="111.99903051403986" height="30" as="geometry">
            <mxRectangle width="111.99903051403986" height="30" as="alternateBounds" />
          </mxGeometry>
        </mxCell>
        <mxCell id="mFe6300Wkr-B0AUd0ANs-295" value="" style="shape=tableRow;horizontal=0;startSize=0;swimlaneHead=0;swimlaneBody=0;fillColor=none;collapsible=0;dropTarget=0;points=[[0,0.5],[1,0.5]];portConstraint=eastwest;top=0;left=0;right=0;bottom=0;" vertex="1" parent="mFe6300Wkr-B0AUd0ANs-200">
          <mxGeometry y="180" width="156.7381184895833" height="30" as="geometry" />
        </mxCell>
        <mxCell id="mFe6300Wkr-B0AUd0ANs-296" value="" style="shape=partialRectangle;connectable=0;fillColor=none;top=0;left=0;bottom=0;right=0;editable=1;overflow=hidden;whiteSpace=wrap;html=1;" vertex="1" parent="mFe6300Wkr-B0AUd0ANs-295">
          <mxGeometry width="44.73908797554343" height="30" as="geometry">
            <mxRectangle width="44.73908797554343" height="30" as="alternateBounds" />
          </mxGeometry>
        </mxCell>
        <mxCell id="mFe6300Wkr-B0AUd0ANs-297" value="status" style="shape=partialRectangle;connectable=0;fillColor=none;top=0;left=0;bottom=0;right=0;align=left;spacingLeft=6;overflow=hidden;whiteSpace=wrap;html=1;fontStyle=0" vertex="1" parent="mFe6300Wkr-B0AUd0ANs-295">
          <mxGeometry x="44.73908797554343" width="111.99903051403986" height="30" as="geometry">
            <mxRectangle width="111.99903051403986" height="30" as="alternateBounds" />
          </mxGeometry>
        </mxCell>
        <mxCell id="mFe6300Wkr-B0AUd0ANs-213" style="edgeStyle=orthogonalEdgeStyle;rounded=0;orthogonalLoop=1;jettySize=auto;html=1;exitX=1;exitY=0.5;exitDx=0;exitDy=0;entryX=0;entryY=0.5;entryDx=0;entryDy=0;" edge="1" parent="1" source="mFe6300Wkr-B0AUd0ANs-114" target="mFe6300Wkr-B0AUd0ANs-201">
          <mxGeometry relative="1" as="geometry" />
        </mxCell>
        <mxCell id="mFe6300Wkr-B0AUd0ANs-214" style="edgeStyle=orthogonalEdgeStyle;rounded=0;orthogonalLoop=1;jettySize=auto;html=1;exitX=0;exitY=0.5;exitDx=0;exitDy=0;entryX=1;entryY=0.5;entryDx=0;entryDy=0;" edge="1" parent="1" source="mFe6300Wkr-B0AUd0ANs-28" target="mFe6300Wkr-B0AUd0ANs-210">
          <mxGeometry relative="1" as="geometry">
            <Array as="points">
              <mxPoint x="276" y="2697" />
              <mxPoint x="276" y="2984" />
            </Array>
          </mxGeometry>
        </mxCell>
        <mxCell id="mFe6300Wkr-B0AUd0ANs-215" style="edgeStyle=orthogonalEdgeStyle;rounded=0;orthogonalLoop=1;jettySize=auto;html=1;exitX=1;exitY=0.5;exitDx=0;exitDy=0;entryX=1;entryY=0.5;entryDx=0;entryDy=0;" edge="1" parent="1" source="mFe6300Wkr-B0AUd0ANs-164" target="mFe6300Wkr-B0AUd0ANs-207">
          <mxGeometry relative="1" as="geometry">
            <mxPoint x="170" y="2982" as="targetPoint" />
            <Array as="points">
              <mxPoint x="235" y="2745" />
              <mxPoint x="235" y="2954" />
            </Array>
          </mxGeometry>
        </mxCell>
        <mxCell id="mFe6300Wkr-B0AUd0ANs-227" value="&lt;span style=&quot;text-wrap: wrap;&quot;&gt;Borrowing&amp;nbsp; &amp;nbsp;&lt;/span&gt;" style="shape=table;startSize=30;container=1;collapsible=1;childLayout=tableLayout;fixedRows=1;rowLines=0;fontStyle=1;align=center;resizeLast=1;html=1;" vertex="1" parent="1">
          <mxGeometry x="344" y="3029" width="184.30435844089703" height="240" as="geometry" />
        </mxCell>
        <mxCell id="mFe6300Wkr-B0AUd0ANs-228" value="" style="shape=tableRow;horizontal=0;startSize=0;swimlaneHead=0;swimlaneBody=0;fillColor=none;collapsible=0;dropTarget=0;points=[[0,0.5],[1,0.5]];portConstraint=eastwest;top=0;left=0;right=0;bottom=1;" vertex="1" parent="mFe6300Wkr-B0AUd0ANs-227">
          <mxGeometry y="30" width="184.30435844089703" height="30" as="geometry" />
        </mxCell>
        <mxCell id="mFe6300Wkr-B0AUd0ANs-229" value="PK" style="shape=partialRectangle;connectable=0;fillColor=none;top=0;left=0;bottom=0;right=0;fontStyle=1;overflow=hidden;whiteSpace=wrap;html=1;" vertex="1" parent="mFe6300Wkr-B0AUd0ANs-228">
          <mxGeometry width="44.73908797554343" height="30" as="geometry">
            <mxRectangle width="44.73908797554343" height="30" as="alternateBounds" />
          </mxGeometry>
        </mxCell>
        <mxCell id="mFe6300Wkr-B0AUd0ANs-230" value="&lt;span style=&quot;text-align: center;&quot;&gt;borrowing_id (auto increment)&lt;/span&gt;" style="shape=partialRectangle;connectable=0;fillColor=none;top=0;left=0;bottom=0;right=0;align=left;spacingLeft=6;fontStyle=5;overflow=hidden;whiteSpace=wrap;html=1;" vertex="1" parent="mFe6300Wkr-B0AUd0ANs-228">
          <mxGeometry x="44.73908797554343" width="139.5652704653536" height="30" as="geometry">
            <mxRectangle width="139.5652704653536" height="30" as="alternateBounds" />
          </mxGeometry>
        </mxCell>
        <mxCell id="mFe6300Wkr-B0AUd0ANs-298" value="" style="shape=tableRow;horizontal=0;startSize=0;swimlaneHead=0;swimlaneBody=0;fillColor=none;collapsible=0;dropTarget=0;points=[[0,0.5],[1,0.5]];portConstraint=eastwest;top=0;left=0;right=0;bottom=1;" vertex="1" parent="mFe6300Wkr-B0AUd0ANs-227">
          <mxGeometry y="60" width="184.30435844089703" height="30" as="geometry" />
        </mxCell>
        <mxCell id="mFe6300Wkr-B0AUd0ANs-299" value="FK" style="shape=partialRectangle;connectable=0;fillColor=none;top=0;left=0;bottom=0;right=0;fontStyle=1;overflow=hidden;whiteSpace=wrap;html=1;" vertex="1" parent="mFe6300Wkr-B0AUd0ANs-298">
          <mxGeometry width="44.73908797554343" height="30" as="geometry">
            <mxRectangle width="44.73908797554343" height="30" as="alternateBounds" />
          </mxGeometry>
        </mxCell>
        <mxCell id="mFe6300Wkr-B0AUd0ANs-300" value="&lt;span style=&quot;font-weight: 400;&quot;&gt;member_id&lt;/span&gt;" style="shape=partialRectangle;connectable=0;fillColor=none;top=0;left=0;bottom=0;right=0;align=left;spacingLeft=6;fontStyle=1;overflow=hidden;whiteSpace=wrap;html=1;" vertex="1" parent="mFe6300Wkr-B0AUd0ANs-298">
          <mxGeometry x="44.73908797554343" width="139.5652704653536" height="30" as="geometry">
            <mxRectangle width="139.5652704653536" height="30" as="alternateBounds" />
          </mxGeometry>
        </mxCell>
        <mxCell id="mFe6300Wkr-B0AUd0ANs-301" value="" style="shape=tableRow;horizontal=0;startSize=0;swimlaneHead=0;swimlaneBody=0;fillColor=none;collapsible=0;dropTarget=0;points=[[0,0.5],[1,0.5]];portConstraint=eastwest;top=0;left=0;right=0;bottom=1;" vertex="1" parent="mFe6300Wkr-B0AUd0ANs-227">
          <mxGeometry y="90" width="184.30435844089703" height="30" as="geometry" />
        </mxCell>
        <mxCell id="mFe6300Wkr-B0AUd0ANs-302" value="FK" style="shape=partialRectangle;connectable=0;fillColor=none;top=0;left=0;bottom=0;right=0;fontStyle=1;overflow=hidden;whiteSpace=wrap;html=1;" vertex="1" parent="mFe6300Wkr-B0AUd0ANs-301">
          <mxGeometry width="44.73908797554343" height="30" as="geometry">
            <mxRectangle width="44.73908797554343" height="30" as="alternateBounds" />
          </mxGeometry>
        </mxCell>
        <mxCell id="mFe6300Wkr-B0AUd0ANs-303" value="&lt;span style=&quot;font-weight: 400;&quot;&gt;ISBN&lt;/span&gt;" style="shape=partialRectangle;connectable=0;fillColor=none;top=0;left=0;bottom=0;right=0;align=left;spacingLeft=6;fontStyle=1;overflow=hidden;whiteSpace=wrap;html=1;" vertex="1" parent="mFe6300Wkr-B0AUd0ANs-301">
          <mxGeometry x="44.73908797554343" width="139.5652704653536" height="30" as="geometry">
            <mxRectangle width="139.5652704653536" height="30" as="alternateBounds" />
          </mxGeometry>
        </mxCell>
        <mxCell id="mFe6300Wkr-B0AUd0ANs-304" value="" style="shape=tableRow;horizontal=0;startSize=0;swimlaneHead=0;swimlaneBody=0;fillColor=none;collapsible=0;dropTarget=0;points=[[0,0.5],[1,0.5]];portConstraint=eastwest;top=0;left=0;right=0;bottom=1;" vertex="1" parent="mFe6300Wkr-B0AUd0ANs-227">
          <mxGeometry y="120" width="184.30435844089703" height="30" as="geometry" />
        </mxCell>
        <mxCell id="mFe6300Wkr-B0AUd0ANs-305" value="FK" style="shape=partialRectangle;connectable=0;fillColor=none;top=0;left=0;bottom=0;right=0;fontStyle=1;overflow=hidden;whiteSpace=wrap;html=1;" vertex="1" parent="mFe6300Wkr-B0AUd0ANs-304">
          <mxGeometry width="44.73908797554343" height="30" as="geometry">
            <mxRectangle width="44.73908797554343" height="30" as="alternateBounds" />
          </mxGeometry>
        </mxCell>
        <mxCell id="mFe6300Wkr-B0AUd0ANs-306" value="&lt;span style=&quot;font-weight: 400; text-align: center;&quot;&gt;employee_id&lt;/span&gt;" style="shape=partialRectangle;connectable=0;fillColor=none;top=0;left=0;bottom=0;right=0;align=left;spacingLeft=6;fontStyle=1;overflow=hidden;whiteSpace=wrap;html=1;" vertex="1" parent="mFe6300Wkr-B0AUd0ANs-304">
          <mxGeometry x="44.73908797554343" width="139.5652704653536" height="30" as="geometry">
            <mxRectangle width="139.5652704653536" height="30" as="alternateBounds" />
          </mxGeometry>
        </mxCell>
        <mxCell id="mFe6300Wkr-B0AUd0ANs-262" value="" style="shape=tableRow;horizontal=0;startSize=0;swimlaneHead=0;swimlaneBody=0;fillColor=none;collapsible=0;dropTarget=0;points=[[0,0.5],[1,0.5]];portConstraint=eastwest;top=0;left=0;right=0;bottom=0;" vertex="1" parent="mFe6300Wkr-B0AUd0ANs-227">
          <mxGeometry y="150" width="184.30435844089703" height="30" as="geometry" />
        </mxCell>
        <mxCell id="mFe6300Wkr-B0AUd0ANs-263" value="" style="shape=partialRectangle;connectable=0;fillColor=none;top=0;left=0;bottom=0;right=0;editable=1;overflow=hidden;whiteSpace=wrap;html=1;" vertex="1" parent="mFe6300Wkr-B0AUd0ANs-262">
          <mxGeometry width="44.73908797554343" height="30" as="geometry">
            <mxRectangle width="44.73908797554343" height="30" as="alternateBounds" />
          </mxGeometry>
        </mxCell>
        <mxCell id="mFe6300Wkr-B0AUd0ANs-264" value="&lt;span style=&quot;text-align: center;&quot;&gt;issued_date&lt;/span&gt;" style="shape=partialRectangle;connectable=0;fillColor=none;top=0;left=0;bottom=0;right=0;align=left;spacingLeft=6;overflow=hidden;whiteSpace=wrap;html=1;fontStyle=0" vertex="1" parent="mFe6300Wkr-B0AUd0ANs-262">
          <mxGeometry x="44.73908797554343" width="139.5652704653536" height="30" as="geometry">
            <mxRectangle width="139.5652704653536" height="30" as="alternateBounds" />
          </mxGeometry>
        </mxCell>
        <mxCell id="mFe6300Wkr-B0AUd0ANs-259" value="" style="shape=tableRow;horizontal=0;startSize=0;swimlaneHead=0;swimlaneBody=0;fillColor=none;collapsible=0;dropTarget=0;points=[[0,0.5],[1,0.5]];portConstraint=eastwest;top=0;left=0;right=0;bottom=0;" vertex="1" parent="mFe6300Wkr-B0AUd0ANs-227">
          <mxGeometry y="180" width="184.30435844089703" height="30" as="geometry" />
        </mxCell>
        <mxCell id="mFe6300Wkr-B0AUd0ANs-260" value="" style="shape=partialRectangle;connectable=0;fillColor=none;top=0;left=0;bottom=0;right=0;editable=1;overflow=hidden;whiteSpace=wrap;html=1;" vertex="1" parent="mFe6300Wkr-B0AUd0ANs-259">
          <mxGeometry width="44.73908797554343" height="30" as="geometry">
            <mxRectangle width="44.73908797554343" height="30" as="alternateBounds" />
          </mxGeometry>
        </mxCell>
        <mxCell id="mFe6300Wkr-B0AUd0ANs-261" value="&lt;span style=&quot;text-align: center;&quot;&gt;status&lt;/span&gt;" style="shape=partialRectangle;connectable=0;fillColor=none;top=0;left=0;bottom=0;right=0;align=left;spacingLeft=6;overflow=hidden;whiteSpace=wrap;html=1;fontStyle=0" vertex="1" parent="mFe6300Wkr-B0AUd0ANs-259">
          <mxGeometry x="44.73908797554343" width="139.5652704653536" height="30" as="geometry">
            <mxRectangle width="139.5652704653536" height="30" as="alternateBounds" />
          </mxGeometry>
        </mxCell>
        <mxCell id="mFe6300Wkr-B0AUd0ANs-307" value="" style="shape=tableRow;horizontal=0;startSize=0;swimlaneHead=0;swimlaneBody=0;fillColor=none;collapsible=0;dropTarget=0;points=[[0,0.5],[1,0.5]];portConstraint=eastwest;top=0;left=0;right=0;bottom=0;" vertex="1" parent="mFe6300Wkr-B0AUd0ANs-227">
          <mxGeometry y="210" width="184.30435844089703" height="30" as="geometry" />
        </mxCell>
        <mxCell id="mFe6300Wkr-B0AUd0ANs-308" value="" style="shape=partialRectangle;connectable=0;fillColor=none;top=0;left=0;bottom=0;right=0;editable=1;overflow=hidden;whiteSpace=wrap;html=1;" vertex="1" parent="mFe6300Wkr-B0AUd0ANs-307">
          <mxGeometry width="44.73908797554343" height="30" as="geometry">
            <mxRectangle width="44.73908797554343" height="30" as="alternateBounds" />
          </mxGeometry>
        </mxCell>
        <mxCell id="mFe6300Wkr-B0AUd0ANs-309" value="&lt;span style=&quot;text-align: center;&quot;&gt;due_date&lt;/span&gt;" style="shape=partialRectangle;connectable=0;fillColor=none;top=0;left=0;bottom=0;right=0;align=left;spacingLeft=6;overflow=hidden;whiteSpace=wrap;html=1;fontStyle=0" vertex="1" parent="mFe6300Wkr-B0AUd0ANs-307">
          <mxGeometry x="44.73908797554343" width="139.5652704653536" height="30" as="geometry">
            <mxRectangle width="139.5652704653536" height="30" as="alternateBounds" />
          </mxGeometry>
        </mxCell>
        <mxCell id="mFe6300Wkr-B0AUd0ANs-265" value="" style="shape=flexArrow;endArrow=classic;html=1;rounded=0;" edge="1" parent="1">
          <mxGeometry width="50" height="50" relative="1" as="geometry">
            <mxPoint x="330" y="3102" as="sourcePoint" />
            <mxPoint x="175" y="3020" as="targetPoint" />
          </mxGeometry>
        </mxCell>
        <mxCell id="mFe6300Wkr-B0AUd0ANs-267" value="&lt;span style=&quot;font-size: 12px; text-align: left; text-wrap: wrap; background-color: rgb(251, 251, 251);&quot;&gt;instead of this table&lt;/span&gt;" style="edgeLabel;html=1;align=center;verticalAlign=middle;resizable=0;points=[];" vertex="1" connectable="0" parent="mFe6300Wkr-B0AUd0ANs-265">
          <mxGeometry x="0.2556" relative="1" as="geometry">
            <mxPoint x="51" y="24" as="offset" />
          </mxGeometry>
        </mxCell>
        <mxCell id="mFe6300Wkr-B0AUd0ANs-272" style="edgeStyle=orthogonalEdgeStyle;rounded=0;orthogonalLoop=1;jettySize=auto;html=1;entryX=0.25;entryY=0;entryDx=0;entryDy=0;endArrow=none;endFill=0;" edge="1" parent="1" source="mFe6300Wkr-B0AUd0ANs-271" target="8QP9LGqgboKZ49ZWmoJ0-194">
          <mxGeometry relative="1" as="geometry" />
        </mxCell>
        <mxCell id="mFe6300Wkr-B0AUd0ANs-271" value="telephone" style="ellipse;shape=doubleEllipse;margin=3;whiteSpace=wrap;html=1;align=center;" vertex="1" parent="1">
          <mxGeometry x="573" y="1977" width="92" height="40" as="geometry" />
        </mxCell>
        <mxCell id="mFe6300Wkr-B0AUd0ANs-273" value="&lt;span style=&quot;text-wrap: wrap;&quot;&gt;Telephone&lt;/span&gt;" style="shape=table;startSize=30;container=1;collapsible=1;childLayout=tableLayout;fixedRows=1;rowLines=0;fontStyle=1;align=center;resizeLast=1;html=1;" vertex="1" parent="1">
          <mxGeometry x="573" y="2652" width="150.7666829427086" height="90" as="geometry" />
        </mxCell>
        <mxCell id="mFe6300Wkr-B0AUd0ANs-274" value="" style="shape=tableRow;horizontal=0;startSize=0;swimlaneHead=0;swimlaneBody=0;fillColor=none;collapsible=0;dropTarget=0;points=[[0,0.5],[1,0.5]];portConstraint=eastwest;top=0;left=0;right=0;bottom=1;" vertex="1" parent="mFe6300Wkr-B0AUd0ANs-273">
          <mxGeometry y="30" width="150.7666829427086" height="30" as="geometry" />
        </mxCell>
        <mxCell id="mFe6300Wkr-B0AUd0ANs-275" value="PK,FK" style="shape=partialRectangle;connectable=0;fillColor=none;top=0;left=0;bottom=0;right=0;fontStyle=1;overflow=hidden;whiteSpace=wrap;html=1;" vertex="1" parent="mFe6300Wkr-B0AUd0ANs-274">
          <mxGeometry width="46.2068460398707" height="30" as="geometry">
            <mxRectangle width="46.2068460398707" height="30" as="alternateBounds" />
          </mxGeometry>
        </mxCell>
        <mxCell id="mFe6300Wkr-B0AUd0ANs-276" value="member_id" style="shape=partialRectangle;connectable=0;fillColor=none;top=0;left=0;bottom=0;right=0;align=left;spacingLeft=6;fontStyle=5;overflow=hidden;whiteSpace=wrap;html=1;" vertex="1" parent="mFe6300Wkr-B0AUd0ANs-274">
          <mxGeometry x="46.2068460398707" width="104.5598369028379" height="30" as="geometry">
            <mxRectangle width="104.5598369028379" height="30" as="alternateBounds" />
          </mxGeometry>
        </mxCell>
        <mxCell id="mFe6300Wkr-B0AUd0ANs-277" value="" style="shape=tableRow;horizontal=0;startSize=0;swimlaneHead=0;swimlaneBody=0;fillColor=none;collapsible=0;dropTarget=0;points=[[0,0.5],[1,0.5]];portConstraint=eastwest;top=0;left=0;right=0;bottom=0;" vertex="1" parent="mFe6300Wkr-B0AUd0ANs-273">
          <mxGeometry y="60" width="150.7666829427086" height="30" as="geometry" />
        </mxCell>
        <mxCell id="mFe6300Wkr-B0AUd0ANs-278" value="PK" style="shape=partialRectangle;connectable=0;fillColor=none;top=0;left=0;bottom=0;right=0;editable=1;overflow=hidden;whiteSpace=wrap;html=1;fontStyle=1" vertex="1" parent="mFe6300Wkr-B0AUd0ANs-277">
          <mxGeometry width="46.2068460398707" height="30" as="geometry">
            <mxRectangle width="46.2068460398707" height="30" as="alternateBounds" />
          </mxGeometry>
        </mxCell>
        <mxCell id="mFe6300Wkr-B0AUd0ANs-279" value="tel_no" style="shape=partialRectangle;connectable=0;fillColor=none;top=0;left=0;bottom=0;right=0;align=left;spacingLeft=6;overflow=hidden;whiteSpace=wrap;html=1;fontStyle=5" vertex="1" parent="mFe6300Wkr-B0AUd0ANs-277">
          <mxGeometry x="46.2068460398707" width="104.5598369028379" height="30" as="geometry">
            <mxRectangle width="104.5598369028379" height="30" as="alternateBounds" />
          </mxGeometry>
        </mxCell>
        <mxCell id="mFe6300Wkr-B0AUd0ANs-286" style="edgeStyle=orthogonalEdgeStyle;rounded=0;orthogonalLoop=1;jettySize=auto;html=1;exitX=1;exitY=0.5;exitDx=0;exitDy=0;entryX=0;entryY=0.5;entryDx=0;entryDy=0;" edge="1" parent="1" source="mFe6300Wkr-B0AUd0ANs-28" target="mFe6300Wkr-B0AUd0ANs-274">
          <mxGeometry relative="1" as="geometry" />
        </mxCell>
        <mxCell id="mFe6300Wkr-B0AUd0ANs-287" value="&lt;div style=&quot;text-align: left;&quot;&gt;Composite Primary Keys: this means the PK of Telephone table is created by adding of two PKs which are member_id and tel_no. Therefore there cant be a duplicate of same combination of member_id and tel_no&lt;/div&gt;" style="text;html=1;align=center;verticalAlign=middle;whiteSpace=wrap;rounded=0;fontStyle=2" vertex="1" parent="1">
          <mxGeometry x="740" y="2688" width="301" height="30" as="geometry" />
        </mxCell>
        <mxCell id="mFe6300Wkr-B0AUd0ANs-288" value="&lt;div style=&quot;text-align: left;&quot;&gt;this is a history table&lt;/div&gt;" style="text;html=1;align=center;verticalAlign=middle;whiteSpace=wrap;rounded=0;fontStyle=2" vertex="1" parent="1">
          <mxGeometry x="147" y="2879" width="76" height="30" as="geometry" />
        </mxCell>
      </root>
    </mxGraphModel>
  </diagram>
</mxfile>
